<?xml version="1.0" encoding="utf-8"?>
<!-- Generator: Adobe Illustrator 21.0.0, SVG Export Plug-In . SVG Version: 6.00 Build 0)  -->
<svg version="1.1" id="Layer_1" xmlns="http://www.w3.org/2000/svg" xmlns:xlink="http://www.w3.org/1999/xlink" x="0px" y="0px"
	 viewBox="0 0 240 240" style="enable-background:new 0 0 240 240;" xml:space="preserve">
<style type="text/css">
	.st0{fill:#FEFEFE;}
	.st1{fill:#120D0B;}
	.st2{fill:#F1BF10;}
	.st3{fill:#0D0B0D;}
	.st4{fill:#101010;}
	.st5{fill:#2373B7;}
	.st6{fill:#0B0C11;}
	.st7{fill:#FBFBFB;}
	.st8{fill:#140A09;}
	.st9{fill:#D62C39;}
	.st10{fill:#030101;}
</style>
<title>lutheran_rose</title>
<path class="st0" d="M240,240H0V0h240V240z M120,226.3c58.5,0,105.9-47.3,105.9-105.8C226,62,178.6,14.6,120.1,14.5
	c-58.5,0-105.9,47.3-105.9,105.8c0,1,0,2,0,2.9C15.8,180.6,62.7,226.2,120,226.3L120,226.3z"/>
<path class="st1" d="M120,226.3c-58.5,0-105.8-47.5-105.8-106s47.5-105.8,106-105.8S226,62,225.9,120.5c0,0.6,0,1.3,0,1.9
	C224.8,180.1,177.7,226.3,120,226.3z M15.4,120.4c-0.2,57.8,46.5,104.8,104.3,105c57.4,0.2,104.2-45.9,105-103.2
	c0.4-30.1-10.2-55.9-31.7-76.8c-20.2-19.7-44.8-29.5-73.1-29.6C62.3,15.6,15.4,62.8,15.4,120.4z"/>
<path class="st2" d="M15.4,120.4c0-57.7,47-104.8,104.5-104.6c28.3,0.1,52.8,9.9,73.1,29.6c21.5,21,32.1,46.8,31.7,76.8
	c-0.8,57.8-48.2,104-106,103.2C61.2,224.7,15.2,177.8,15.4,120.4L15.4,120.4z M186,189.1c1.1-1.1,2.2-2.1,3.2-3.2
	c13.9-14.7,22.8-33.5,25.3-53.5c6.7-52.3-30.3-100.2-82.7-106.8C101,21.6,70.1,32.9,49.2,56c-17.8,19.7-26,42.9-24.8,69.4
	c0.3,5.8,1.1,11.6,2.5,17.3c1.8,7.7,4.6,15,8.3,22c9.3,17.8,24,32.3,42,41.2c15.6,7.9,33.1,11.3,50.5,9.7c2.9-0.2,5.8-0.5,8.6-1
	c11.5-2,22.5-6,32.5-12c6-3.6,11.6-7.9,16.7-12.8L186,189.1z"/>
<path class="st3" d="M185.3,189.8c-5,4.9-10.6,9.1-16.7,12.7c-10,6-21,10-32.5,12c-2.8,0.5-5.7,0.8-8.6,1
	c-17.4,1.6-34.9-1.8-50.5-9.7c-18-8.9-32.7-23.3-42-41.2c-3.7-7-6.4-14.3-8.3-22c-1.4-5.7-2.2-11.4-2.5-17.3
	c-1.1-26.5,7.1-49.8,24.8-69.4c13.8-15.4,32.3-25.7,52.6-29.4c51.8-10,101.9,24,111.9,75.8c5.8,30.2-3.3,61.3-24.4,83.6
	c-1,1.1-2.2,2.1-3.2,3.2l-0.7-0.9c0.1-0.1,0.1-0.2,0.2-0.3c4.8-4.6,9.1-9.8,12.8-15.4c6.5-9.7,11.1-20.6,13.6-32
	c1.3-5.8,2-11.7,2.2-17.7c0.2-6.4-0.3-12.9-1.5-19.2c-1.8-10.2-5.3-20-10.3-29c-11.5-20.7-30.4-36.3-52.8-43.8
	c-9.6-3.3-19.7-4.9-29.9-4.8c-5.5,0.1-11,0.6-16.4,1.5C94.9,28.8,87,31.4,79.5,35c-15.1,7.2-28.1,18.2-37.6,32
	c-4.7,6.8-8.4,14.2-11.2,22c-2.5,7.3-4.2,14.9-4.9,22.6c-0.7,7.8-0.5,15.6,0.7,23.3c1.1,7.4,3.2,14.6,6.1,21.5
	c10.8,26.2,32.9,46.2,60.1,54.4c5.2,1.6,10.5,2.7,15.9,3.3c6.3,0.8,12.7,0.9,19,0.3c4.8-0.5,9.7-1.3,14.4-2.3
	c7-1.6,13.8-4.1,20.2-7.4c5.1-2.6,10-5.6,14.5-9.1c2.6-2,5.1-4.3,7.7-6.4L185.3,189.8z"/>
<path class="st4" d="M185.3,188.2l0.7,0.9l-0.7,0.7l-0.9-0.7L185.3,188.2z"/>
<path class="st5" d="M185.3,188.2l-1,0.9c-2.6,2.1-5.1,4.3-7.7,6.4c-4.5,3.5-9.4,6.5-14.5,9.1c-6.4,3.3-13.1,5.8-20.2,7.4
	c-4.8,1-9.6,1.8-14.4,2.3c-6.3,0.6-12.7,0.5-19-0.3c-5.4-0.6-10.7-1.7-15.9-3.3c-27.2-8.1-49.2-28.1-60.1-54.3
	c-2.9-6.9-4.9-14.1-6.1-21.5c-1.2-7.7-1.4-15.5-0.7-23.3c0.7-7.7,2.4-15.3,5-22.6c2.7-7.8,6.5-15.2,11.2-22
	c9.5-13.8,22.5-24.8,37.6-32c7.5-3.6,15.4-6.2,23.6-7.5c5.4-0.9,10.9-1.4,16.4-1.5c10.1-0.1,20.2,1.4,29.9,4.7
	c22.4,7.5,41.2,23.2,52.8,43.8c5.1,9,8.5,18.8,10.3,29c1.2,6.3,1.7,12.8,1.5,19.2c-0.2,5.9-0.9,11.9-2.2,17.7
	c-2.5,11.4-7.1,22.3-13.6,32c-3.7,5.6-8,10.8-12.8,15.4C185.4,188,185.3,188.1,185.3,188.2z M39.3,148.9c0,0.2,0,0.5-0.1,0.7
	c-0.8,2.7-0.8,5.6,0,8.2c1,3.2,2.8,6.1,5.3,8.4c5.1,4.6,10.3,8.9,15.5,13.4c2.1,1.8,4.5,3.3,5.5,6c0.6,1.8,1.1,3.6,1.4,5.4
	c0.2,0.8,0.4,1.2,1.3,0.9c2.7-0.9,5.7-0.7,8.3,0.4c2.7,1.1,5.3,2.5,7.8,4.1c4.4,2.8,8.7,5.8,13.6,7.8c4.1,1.7,8.4,2.7,12.8,0.8
	c0.8-0.4,1.6-0.9,2.3-1.4c0.7,1.1,1.4,2.2,2.2,3.2c2,2.7,4.2,3.8,7,0.6c0.9-1.1,1.7-2.3,2.5-3.4c0.1,0,0.2,0,0.3,0.1
	c0.1,0.1,0.3,0.2,0.4,0.2c3.2,2.1,7.1,2.8,10.8,2.1c3.1-0.6,6-1.7,8.7-3.3c5.5-3.1,10.9-6.3,16.3-9.5c3.3-2,6.7-3.3,10.5-2.2
	c0.5,0.2,1,0.3,1.5,0.2c0.3,0,0.9-0.5,0.9-0.7c-0.2-3.9,1.8-6.9,4.2-9.6c1.9-2.2,4.4-3.8,6.5-5.7c3.3-3,6.8-5.9,9.9-9.2
	s5.3-7,4.9-11.8c-0.1-0.8-0.3-1.6-0.4-2.5c1.2-0.4,2.4-0.8,3.5-1.3c4.2-1.8,4.7-4.1,1.8-7.5c-0.7-0.8-1.4-1.5-2.1-2.3
	c0.5-0.4,0.9-0.7,1.4-1.1c2.2-1.8,3.8-4.3,4.6-7c0.9-3.5,1-7.2,0.3-10.7c-1.3-6.8-2.8-13.6-4.3-20.4c-0.7-3.2-0.7-6.3,1-9.2
	c0.3-0.6,0.7-1.2,1-1.8s0.3-1-0.4-1.5c-3.9-2.5-7-6.1-8.8-10.3c-2.3-5.4-4.4-11-7.7-15.9c-2-3-4.2-5.7-7.7-7c-1.4-0.4-2.8-0.8-4.3-1
	c-0.2-1.8-0.2-3.6-0.5-5.4c-0.4-2.8-2-3.8-4.8-3.2c-0.5,0.1-0.9,0.3-1.3,0.5c-1.2,0.5-2.3,1.1-3.6,1.7c-0.2-0.5-0.5-0.8-0.6-1.2
	c-1.6-3.5-4.4-6.2-8-7.5c-4.5-1.8-9.2-2.2-14-2.4s-9.7-0.5-14.5-0.7c-2.5,0-4.9-0.7-6.9-2.1c-1.1-0.9-2.1-1.9-3.2-2.9
	c-0.5-0.4-0.8-0.7-1.3,0c-2.1,3.1-5.3,4.5-8.8,5.2c-2.4,0.4-4.8,0.6-7.3,0.5c-5.9,0.1-11.8,0-17.5,1.5c-4.4,1.1-8.2,3.2-10,7.8
	c-0.1,0.2-0.2,0.4-0.4,0.5c-0.6-0.4-1.2-0.7-1.8-1c-1.3-0.5-2.6-0.9-4-1.1c-2.1-0.2-3.8,1.9-4,4.4c-0.1,1.4,0,2.7,0,4.1
	c-0.4,0-0.7,0.1-0.9,0.1c-3.9,0-7.6,1.6-10.3,4.4c-2.5,2.7-4.6,5.7-6.1,9c-2.5,5-4.8,10-7.2,15c-1.2,2.4-2.3,4.9-4.7,6.4
	c-1.5,0.9-3,1.6-4.6,2.3c-0.6,0.3-1,0.5-0.4,1.2c2.6,2.9,3.2,6.6,2.7,10.2c-0.6,4.7-1.9,9.2-2.8,13.8c-0.8,4.2-1.6,8.4-1,12.7
	c0.4,3.3,1.5,6.3,4.2,8.5c0.6,0.5,1.2,0.9,1.7,1.3c-0.9,1.1-1.7,2.1-2.5,3.2c-1.8,2.7-1.1,4.9,2.1,5.9
	C36.8,148.2,38,148.5,39.3,148.9z"/>
<path class="st6" d="M39.3,148.9c-1.3-0.4-2.6-0.7-3.8-1.1c-3.1-1-3.9-3.1-2.1-5.9c0.7-1.1,1.6-2.1,2.5-3.2
	c-0.6-0.4-1.2-0.8-1.7-1.3c-2.7-2.2-3.8-5.1-4.2-8.5c-0.5-4.3,0.2-8.5,1-12.7c0.9-4.6,2.3-9.2,2.8-13.8c0.4-3.6-0.1-7.3-2.7-10.2
	c-0.6-0.7-0.2-0.9,0.4-1.2c1.6-0.7,3.1-1.4,4.6-2.3c2.4-1.5,3.5-4,4.7-6.4c2.4-5,4.8-10,7.2-15c1.5-3.3,3.6-6.3,6.1-9
	c2.7-2.8,6.4-4.4,10.3-4.4c0.3,0,0.5-0.1,0.9-0.1c0-1.4,0-2.7,0-4.1c0.1-2.5,1.9-4.6,4-4.4c1.4,0.2,2.7,0.6,4,1.1
	c0.6,0.3,1.2,0.6,1.8,1c0.1-0.2,0.3-0.3,0.4-0.5c1.8-4.6,5.5-6.6,10-7.8c5.7-1.5,11.6-1.4,17.5-1.5c2.4,0.1,4.9-0.1,7.3-0.5
	c3.5-0.7,6.7-2.1,8.8-5.2c0.5-0.8,0.9-0.4,1.3,0c1,1,2,2,3.2,2.9c2,1.4,4.4,2.1,6.9,2.1c4.8,0.3,9.7,0.5,14.5,0.7s9.5,0.6,14,2.4
	c3.6,1.3,6.4,4,8,7.5c0.2,0.4,0.4,0.8,0.6,1.2c1.2-0.6,2.4-1.2,3.6-1.7c0.4-0.2,0.9-0.4,1.3-0.5c2.7-0.6,4.4,0.5,4.8,3.2
	c0.2,1.8,0.3,3.6,0.5,5.4c1.4,0.2,2.9,0.6,4.3,1c3.5,1.3,5.7,4,7.7,7c3.3,4.9,5.4,10.5,7.7,15.9c1.8,4.2,4.9,7.8,8.8,10.3
	c0.7,0.5,0.7,0.9,0.4,1.5s-0.7,1.2-1,1.8c-1.7,2.9-1.7,6-1,9.2c1.5,6.8,3,13.5,4.3,20.4c0.8,3.5,0.7,7.2-0.3,10.7
	c-0.8,2.7-2.4,5.2-4.6,7c-0.4,0.4-0.9,0.7-1.4,1.1c0.7,0.8,1.5,1.5,2.1,2.3c2.9,3.5,2.4,5.7-1.8,7.5c-1.1,0.5-2.3,0.8-3.5,1.3
	c0.2,0.8,0.3,1.7,0.4,2.5c0.4,4.8-1.8,8.5-4.9,11.8s-6.6,6.1-9.9,9.2c-2.2,1.9-4.6,3.6-6.5,5.7c-2.4,2.7-4.3,5.7-4.2,9.6
	c0,0.2-0.6,0.7-0.9,0.7c-0.5,0-1-0.1-1.5-0.2c-3.9-1.1-7.3,0.2-10.5,2.2c-5.4,3.2-10.9,6.4-16.3,9.5c-2.7,1.6-5.6,2.7-8.7,3.3
	c-3.7,0.8-7.6,0-10.8-2.1c-0.1-0.1-0.3-0.2-0.4-0.2c-0.1,0-0.2-0.1-0.3-0.1c-0.8,1.1-1.6,2.3-2.5,3.4c-2.8,3.2-5,2-7-0.6
	c-0.8-1-1.4-2.1-2.2-3.2c-0.7,0.5-1.5,1-2.3,1.4c-4.4,2-8.6,1-12.8-0.8c-4.8-2-9.2-5-13.6-7.8c-2.4-1.6-5.1-3-7.8-4.1
	c-2.6-1.1-5.6-1.2-8.3-0.4c-0.8,0.3-1.1-0.1-1.3-0.9c-0.3-1.8-0.8-3.6-1.4-5.4c-1-2.7-3.4-4.2-5.5-6c-5.2-4.4-10.4-8.8-15.5-13.4
	c-2.5-2.2-4.4-5.1-5.3-8.4c-0.8-2.7-0.8-5.6,0-8.2C39.4,149.3,39.4,149.1,39.3,148.9z M205.2,90.8l-0.8-0.6c-3.6-2.5-6.4-6-8.1-10
	c-1.3-3.3-2.8-6.5-4.3-9.7c-1.8-3.9-3.8-7.7-7.1-10.6c-5.2-4.6-12.4-3.6-15.8,2.5c-1.5,2.9-2.7,5.9-3.7,9c-1,3.3-2.5,6.4-4.3,9.3
	c-1.6,2.5-5,3.2-7.5,1.7c-2.6-1.4-3.5-4.6-2.2-7.2c0.3-0.6,0.6-1.2,1-1.8c1.7-2.2,3.5-4.4,5.1-6.6c2.5-3.3,5.1-6.5,7.5-9.9
	c1.5-2,2-4.6,1.3-7.1c-0.9-3.1-3-5.7-5.8-7.1c-2.2-1.2-4.6-2-7.1-2.4c-6.2-0.7-12.4-1.2-18.6-1.5c-5.6-0.2-11-0.6-15-5.1
	c-3,3.2-7.2,5.1-11.5,5.3c-3.8,0.2-7.5,0.2-11.3,0.3c-4.1,0-8.2,0.5-12.1,1.6c-3.4,1.1-6.5,2.7-7.9,6.2c-1.9,4.7-0.6,8.7,2.8,12.2
	c2.1,2.2,4.6,4.1,6.7,6.3c2.1,2.1,4.1,4.4,5.9,6.8c1.6,2.6,0.8,6-1.9,7.6c-2.3,1.4-5.2,0.9-7-1c-0.4-0.4-0.7-0.8-1-1.3
	c-1.7-3-3.4-6-5-9c-1.9-3.6-3.6-7.2-6.4-10.2c-1.5-1.6-3.1-2.9-5.4-3c-3.2-0.3-6.4,0.7-9,2.7c-2.8,2.4-5.1,5.3-6.7,8.7
	c-3,5.8-5.7,11.8-8.6,17.6c-0.8,1.7-1.9,3.2-3.2,4.5c-1.6,1.3-3.3,2.4-5.1,3.4c2.1,3.9,2.8,8.4,1.9,12.7c-0.9,4.2-1.9,8.4-2.8,12.6
	c-1,4.2-1.2,8.5-0.6,12.7c1.2,6.5,7.4,10.3,13.5,7.9c3-1.4,5.9-3,8.6-4.9c3.2-2,6.3-4.3,10-5.4c2.9-0.8,5.9,0.7,6.8,3.6
	c1.1,2.7-0.2,5.7-2.8,6.8c-0.6,0.3-1.2,0.6-1.9,0.8c-4,1-8,2.1-12,3.1c-3.5,0.9-7,1.7-10,3.8c-1.7,1-3,2.7-3.5,4.7
	c-0.9,3.7-0.3,7.6,1.9,10.8c2,2.9,4.4,5.5,7.1,7.7c4.6,3.9,9.2,7.7,13.8,11.5c2.2,1.7,3.8,4.1,4.5,6.8c0.3,1.1,0.4,2.2,0.6,3.2
	c4.1-0.7,8.2,0,11.9,1.9c2.2,1.2,4.2,2.6,6.3,3.9c4.1,2.3,8.1,4.8,12.3,6.9c2.8,1.5,6,2,9.1,1.5c4.6-1.1,7.9-5,8.3-9.7
	c0.4-3.6-0.5-7.1-1.1-10.7c-0.6-3.3-1-6.6-1.2-10c-0.2-3.5,2.3-5.9,5.8-5.9c3.1,0,5,2.2,4.9,5.8c-0.1,3-0.5,6-0.9,9
	c-0.6,4.3-1.6,8.7-1.3,13.1c0.2,2.3,0.6,4.6,2.5,6.1c2.9,2.4,6.6,3.4,10.3,2.8c3.4-0.6,6.7-1.8,9.7-3.6c5.5-3.1,10.8-6.4,16.3-9.5
	c1.8-1,3.8-1.8,5.9-2.2c1.8-0.3,3.7,0.1,5.5,0.1c0.6-4.2,2.7-8.1,5.9-10.9c2.8-2.5,5.8-4.8,8.7-7.2c3.4-2.9,6.7-5.8,9.1-9.6
	c1.6-2.5,2.6-5.2,2-8.2c-0.8-4.5-4.6-7.9-9.2-8.4c-3.7-0.5-7.4-0.6-11.1-1c-2.5-0.3-5-0.8-7.5-1.5c-2.5-0.6-4.1-3-3.7-5.6
	c0.3-3.2,3.2-5.6,6.4-5.2c0.4,0,0.8,0.1,1.2,0.2c2.7,0.8,5.3,1.8,7.8,2.9c4.2,1.6,8.2,3.5,12.4,4.9c2.3,1,5,0.8,7.2-0.5
	c2.1-1.4,3.8-3.4,4.8-5.7c1.6-3.7,1.5-7.6,0.8-11.4c-1-5.7-2.4-11.4-3.6-17.1c-0.4-1.7-0.8-3.4-1.1-5.2
	C202.3,97.1,203.1,93.6,205.2,90.8z M176.4,55.5c-0.2-1.8-0.4-3.9-0.7-6.1c-0.1-0.9-0.9-1.6-1.8-1.5c-0.1,0-0.1,0-0.2,0
	c-2.2,0.1-3.9,1.3-5.7,2.4c-0.2,0.2-0.3,0.4-0.3,0.7c0.1,2.9-0.9,5.7-2.7,7.9c-2.5,3.4-5.3,6.6-7.9,10c-1.7,2.1-3.3,4.4-4.8,6.7
	c-1.3,2.2-0.4,4.5,1.8,5.7c2,1.2,4.6,0.5,5.8-1.5c0.8-1.1,1.4-2.2,1.9-3.4c1.4-3.6,2.7-7.3,4.1-11c1.1-2.9,2.5-5.8,5.2-7.6
	C173,57,174.7,56.2,176.4,55.5z M174,133.7c-3.5,0-5.5,1.6-5.8,4.1c-0.3,2,1,3.8,3.6,4.5c1.5,0.5,3.1,0.8,4.7,1
	c3.8,0.4,7.6,0.6,11.3,1c4.5,0.5,8.3,2.1,10.7,6.3c0.1,0.2,0.5,0.4,0.7,0.4c1.7-0.7,3.5-1.3,5.1-2.2c0.9-0.4,1.3-1.4,0.9-2.2
	c-0.1-0.2-0.2-0.3-0.3-0.5c-1.1-1.4-2.3-2.7-3.5-4c-0.2-0.2-0.5-0.2-0.8-0.2c-3.2,0.8-6.3,0-9.2-1.2c-4.4-1.8-8.7-3.8-13-5.6
	C176.9,134.6,175.4,134.1,174,133.7L174,133.7z M66.4,51.5h0.1c0,0.4,0,0.8,0.1,1.2c0.2,0.6,0.3,1.5,0.6,1.6c2.7,1,5,3,6.4,5.5
	c2.2,3.7,4.2,7.5,6.3,11.2c1.3,2.4,2.8,4.8,4.5,7.1c1.5,1.9,3.7,1.9,5.6,0.5c1.9-1.3,2.4-3.8,1.3-5.7c-0.7-1.1-1.5-2.2-2.4-3.1
	c-2.9-2.9-5.9-5.6-8.9-8.4c-3.3-3.2-5.8-6.8-5.1-11.7c0-0.3-0.1-0.6-0.3-0.8c-1.5-0.8-3-1.6-4.6-2.1c-1.5-0.5-2.5,0.3-3,1.8
	C66.7,49.6,66.5,50.5,66.4,51.5z M123.6,175.4h-0.2c0-0.6,0-1.1,0-1.7c0.1-1.6-0.8-3-2.2-3.7c-1.5-0.7-3.3-0.4-4.5,0.6
	c-1.4,1.2-2.1,3.1-1.6,4.9c0.7,4.7,1.5,9.3,2.2,14s0.3,9-2.9,12.8c-0.2,0.2-0.2,0.5-0.1,0.8c1,1.6,2.1,3.1,3.3,4.5
	c0.5,0.8,1.5,1,2.2,0.5c0.2-0.1,0.4-0.3,0.5-0.5c1.2-1.3,2.3-2.7,3.2-4.1c0.1-0.2,0-0.6-0.2-0.9c-0.7-1.2-1.2-2.4-1.7-3.7
	c-0.9-3.8-0.3-7.6,0.2-11.4C122.4,183.4,123,179.4,123.6,175.4z M69.5,133.8c0-3.5-3-5.8-6-4.6c-2.1,0.9-4.2,1.9-6.2,3.1
	c-2.9,1.8-5.6,3.8-8.5,5.5c-3.3,2-6.9,3-10.9,1.7c-0.3-0.1-0.6,0-0.8,0.2c-1.1,1.2-2.1,2.6-3.1,3.9c-0.6,0.6-0.5,1.6,0.2,2.2
	c0.2,0.1,0.4,0.3,0.6,0.3c1.6,0.6,3.3,1.1,5,1.5c0.3,0,0.5-0.1,0.7-0.3c1.7-2.2,4-3.7,6.7-4.4c3.8-1.2,7.8-2.1,11.6-3.2
	c2.8-0.8,5.7-1.7,8.4-2.7C68.5,136.5,69.5,135.2,69.5,133.8z"/>
<path class="st7" d="M176.4,55.5c-1.7,0.7-3.4,1.5-5,2.5c-2.7,1.8-4.1,4.6-5.2,7.6c-1.4,3.6-2.7,7.3-4.1,11
	c-0.5,1.2-1.2,2.4-1.9,3.4c-1.2,2-3.8,2.7-5.8,1.5c-2.2-1.2-3.1-3.5-1.8-5.7c1.4-2.3,3-4.6,4.8-6.7c2.6-3.4,5.3-6.6,7.9-10
	c1.8-2.3,2.7-5.1,2.6-7.9c0-0.3,0.1-0.5,0.3-0.7c1.8-1.1,3.5-2.2,5.7-2.4c0.9-0.2,1.8,0.3,2,1.2c0,0.1,0,0.1,0,0.2
	C176,51.5,176.2,53.7,176.4,55.5z"/>
<path class="st7" d="M174,133.7c1.4,0.4,2.9,0.9,4.3,1.4c4.4,1.8,8.7,3.9,13,5.6c2.9,1.2,6,1.9,9.2,1.2c0.3-0.1,0.5,0,0.8,0.2
	c1.3,1.3,2.4,2.6,3.5,4c0.6,0.7,0.5,1.8-0.2,2.4c-0.1,0.1-0.3,0.2-0.5,0.3c-1.7,0.8-3.4,1.5-5.1,2.2c-0.2,0.1-0.6-0.2-0.7-0.4
	c-2.3-4.2-6.2-5.8-10.7-6.3c-3.8-0.4-7.6-0.6-11.3-1c-1.6-0.2-3.1-0.5-4.7-1c-2.5-0.7-3.9-2.5-3.6-4.5
	C168.5,135.3,170.4,133.7,174,133.7z"/>
<path class="st7" d="M66.4,51.5c0.1-1,0.3-2,0.5-2.9c0.5-1.5,1.5-2.3,3-1.8c1.6,0.6,3.1,1.3,4.6,2.1c0.2,0.2,0.4,0.5,0.3,0.8
	c-0.6,4.9,1.8,8.5,5.1,11.7c2.9,2.8,6,5.5,8.9,8.4c0.9,0.9,1.7,2,2.4,3.1c1.2,1.9,0.6,4.5-1.3,5.7c-1.9,1.4-4.1,1.4-5.6-0.5
	c-1.6-2.3-3.1-4.6-4.5-7.1c-2.2-3.7-4.1-7.6-6.3-11.2c-1.4-2.5-3.7-4.5-6.4-5.5c-0.4-0.1-0.5-1-0.6-1.6c-0.1-0.4-0.1-0.8-0.1-1.2
	L66.4,51.5z"/>
<path class="st7" d="M123.6,175.4c-0.6,4-1.2,8-1.8,12.1c-0.5,3.8-1.1,7.6-0.2,11.4c0.4,1.3,1,2.5,1.7,3.7c0.1,0.3,0.3,0.7,0.2,0.9
	c-1,1.4-2.1,2.8-3.2,4.1c-0.5,0.7-1.5,0.9-2.3,0.4c-0.2-0.1-0.3-0.3-0.5-0.5c-1.2-1.4-2.3-2.9-3.3-4.5c-0.1-0.3,0-0.6,0.1-0.8
	c3.2-3.7,3.6-8.1,2.9-12.8s-1.5-9.3-2.2-14c-0.4-1.8,0.2-3.7,1.6-4.9c1.3-1.1,3-1.3,4.5-0.6c1.4,0.6,2.3,2.1,2.2,3.7
	c0,0.6,0,1.1,0,1.7L123.6,175.4z"/>
<path class="st7" d="M69.5,133.8c0,1.5-1,2.8-2.4,3.2c-2.8,1-5.6,1.8-8.4,2.7c-3.9,1.1-7.8,2-11.6,3.2c-2.6,0.7-5,2.3-6.7,4.4
	c-0.2,0.2-0.4,0.3-0.7,0.3c-1.7-0.4-3.4-0.9-5-1.5c-0.8-0.2-1.3-1.1-1.1-1.9c0.1-0.2,0.2-0.4,0.3-0.6c0.9-1.4,2-2.7,3.1-3.9
	c0.2-0.2,0.6-0.2,0.8-0.2c3.9,1.3,7.5,0.3,10.9-1.7c2.9-1.8,5.6-3.8,8.5-5.5c2-1.2,4-2.2,6.2-3.1C66.5,128,69.5,130.2,69.5,133.8z"
	/>
<path class="st8" d="M119.8,87.3c2.9-3.2,6.6-5.7,10.6-7.1c6.6-2.2,12.7-1,18.1,3.1c10.1,7.6,14.7,17.7,13,30.4
	c-1.3,9.8-5.6,18.3-11.4,26.1c-7.9,10.4-18,19.1-29.5,25.4c-0.5,0.3-1.2,0.3-1.7,0.1c-13.3-7.5-24.6-17.2-32.9-30.1
	c-3.9-5.9-6.6-12.5-7.9-19.5c-2.5-13.5,2.4-25.7,14.3-33.4c7.3-4.8,15.5-4.2,22.9,1.3C116.9,84.8,118.3,86,119.8,87.3z M78.7,110.1
	c0.1,1.1,0.2,3.2,0.6,5.2c1.1,6,3.3,11.7,6.4,16.9c3.3,5.7,7.4,10.9,12,15.5c6.3,6.3,13.4,11.8,21.2,16.2c0.5,0.2,1.1,0.2,1.6,0
	c5.5-3,10.7-6.6,15.5-10.7c4.7-4,9-8.5,12.8-13.5c6.2-8.4,11-17.4,11.8-28.1c0.4-4.1-0.1-8.2-1.4-12.2c-2.3-6.6-6.8-12.3-12.8-16
	c-4.9-3.4-11.1-4-16.5-1.6c-3.4,1.4-6.5,3.6-9,6.3c-1,1.1-1.1,1-2.2,0c-1.8-1.7-3.6-3.2-5.6-4.6c-3.6-2.5-8-3.5-12.4-3
	c-3.2,0.5-6.3,1.8-8.9,3.8C83.4,90.5,78.9,98.6,78.7,110.1z"/>
<path class="st9" d="M78.7,110.1c0.2-11.4,4.7-19.6,13-25.8c2.6-2,5.7-3.3,8.9-3.8c4.4-0.5,8.8,0.5,12.4,3c2,1.4,3.9,2.9,5.6,4.6
	c1.2,1,1.2,1.1,2.2,0c2.5-2.8,5.6-4.9,9-6.3c5.4-2.4,11.7-1.8,16.5,1.6c6,3.7,10.5,9.4,12.8,16c1.3,3.9,1.8,8.1,1.4,12.2
	c-0.8,10.7-5.6,19.7-11.8,28.1c-3.8,4.9-8,9.5-12.8,13.5c-4.8,4.1-9.9,7.7-15.5,10.7c-0.5,0.2-1.1,0.2-1.6,0
	c-7.8-4.4-14.9-9.8-21.2-16.2c-4.6-4.7-8.7-9.9-12-15.5c-3.1-5.2-5.3-10.9-6.4-16.9C78.9,113.2,78.8,111.2,78.7,110.1z M126.4,155.1
	c0-0.4,0-0.7,0-0.9c0-11.2,0-22.5,0-33.7c0-1.2,0.2-1.6,1.5-1.6c3.7,0.1,7.4,0,11,0c0.4,0,0.8,0,1.1-0.1v-13.2h-13.7
	c0-0.7,0-1.2,0-1.8c0-3.4,0-6.7,0-10.1c0-1-0.3-1.2-1.2-1.2c-3.4,0-6.8,0.1-10.2,0c-1,0-1.2,0.3-1.2,1.2c0,3.4,0,6.7,0,10.1
	c0,0.5,0,0.9-0.1,1.5H99.9v13.2h13.4V155L126.4,155.1z"/>
<path class="st10" d="M126.4,155h-13.1v-36.7H99.9v-13.2h13.8c0-0.5,0.1-1,0.1-1.5c0-3.4,0-6.7,0-10.1c0-0.9,0.2-1.2,1.2-1.2
	c3.4,0.1,6.8,0.1,10.2,0c0.9,0,1.2,0.2,1.2,1.2c-0.1,3.4,0,6.7,0,10.1c0,0.6,0,1.1,0,1.8h13.7v13.2c-0.4,0-0.8,0.1-1.1,0.1
	c-3.7,0-7.4,0-11,0c-1.3,0-1.5,0.4-1.5,1.6c0,11.2,0,22.5,0,33.7C126.4,154.4,126.4,154.7,126.4,155z"/>
</svg>
