<svg id="Layer_1" data-name="Layer 1" xmlns="http://www.w3.org/2000/svg" viewBox="0 0 240 240">
    <title>lutheran_rose</title>
    <path d="M729.24,675.24h-240v-240h240Zm-120-13.71a105.88,105.88,0,1,0-105.78-103A105.93,105.93,0,0,0,609.21,661.53Z" transform="translate(-489.24 -435.24)" style="fill:#fefefe" />
    <path d="M609.21,661.53a105.88,105.88,0,1,1,105.95-103.9A105.88,105.88,0,0,1,609.21,661.53ZM504.61,555.68a104.64,104.64,0,0,0,209.27,1.77c.36-30.07-10.25-55.85-31.74-76.82-20.23-19.74-44.82-29.52-73.09-29.6C551.56,450.87,504.63,498,504.61,555.68Z" transform="translate(-489.24 -435.24)" style="fill:#120d0b" />
    <path d="M504.61,555.68c0-57.7,47-104.81,104.45-104.65,28.26.08,52.85,9.86,73.09,29.6,21.49,21,32.1,46.75,31.74,76.82a104.64,104.64,0,0,1-209.27-1.77Zm170.6,68.66c1.08-1.06,2.22-2.07,3.25-3.18a94.79,94.79,0,0,0,25.3-53.55A95.52,95.52,0,0,0,538.39,491.2c-17.79,19.66-26,42.92-24.85,69.41A90.18,90.18,0,0,0,516,577.88a93.16,93.16,0,0,0,8.26,22,94.47,94.47,0,0,0,42,41.18,92.89,92.89,0,0,0,50.46,9.69c2.89-.25,5.78-.55,8.63-1a94.29,94.29,0,0,0,32.48-12A88.8,88.8,0,0,0,674.5,625Z" transform="translate(-489.24 -435.24)" style="fill:#f1bf10" />
    <path d="M674.5,625a88.8,88.8,0,0,1-16.65,12.65,94.29,94.29,0,0,1-32.48,12c-2.85.5-5.74.8-8.63,1a92.89,92.89,0,0,1-50.46-9.69,94.47,94.47,0,0,1-42-41.18,93.16,93.16,0,0,1-8.26-22,90.18,90.18,0,0,1-2.49-17.26c-1.12-26.49,7.06-49.75,24.85-69.41A92.89,92.89,0,0,1,591,461.74a95.55,95.55,0,0,1,87.5,159.43c-1,1.11-2.16,2.12-3.25,3.18l-.68-.92a1.46,1.46,0,0,1,.19-.3,88.74,88.74,0,0,0,12.82-15.4,93.55,93.55,0,0,0,13.56-32,99.38,99.38,0,0,0,2.18-17.68,90,90,0,0,0-1.46-19.2,92.21,92.21,0,0,0-10.35-29A95.14,95.14,0,0,0,638.7,466a89.86,89.86,0,0,0-29.9-4.75,114.08,114.08,0,0,0-16.44,1.47,86.51,86.51,0,0,0-23.64,7.51,95.08,95.08,0,0,0-37.59,32,93.08,93.08,0,0,0-11.16,22,95.29,95.29,0,0,0-4.9,22.63,94.21,94.21,0,0,0,.7,23.3,92.53,92.53,0,0,0,6.06,21.47A94.5,94.5,0,0,0,581.92,646a92.41,92.41,0,0,0,15.92,3.3,83.49,83.49,0,0,0,19,.26,137.63,137.63,0,0,0,14.41-2.3,85.61,85.61,0,0,0,20.15-7.39,87.77,87.77,0,0,0,14.47-9.09c2.63-2,5.13-4.26,7.69-6.39Z" transform="translate(-489.24 -435.24)" style="fill:#0d0b0d" />
    <path d="M674.53,623.42l.68.92-.71.7-.93-.68Z" transform="translate(-489.24 -435.24)" style="fill:#101010" />
    <path d="M674.53,623.42l-1,.94c-2.56,2.14-5.06,4.34-7.69,6.39a87.77,87.77,0,0,1-14.47,9.09,85.61,85.61,0,0,1-20.15,7.39,137.63,137.63,0,0,1-14.41,2.3,83.49,83.49,0,0,1-19-.26,92.41,92.41,0,0,1-15.92-3.3,94.43,94.43,0,0,1-60.11-54.26,92.53,92.53,0,0,1-6.06-21.47,94.21,94.21,0,0,1-.7-23.3A95.29,95.29,0,0,1,520,524.3a93.08,93.08,0,0,1,11.16-22,95.08,95.08,0,0,1,37.59-32,86.51,86.51,0,0,1,23.64-7.51,114.08,114.08,0,0,1,16.44-1.47A89.86,89.86,0,0,1,638.7,466a95.14,95.14,0,0,1,52.77,43.82,92.21,92.21,0,0,1,10.35,29,90,90,0,0,1,1.46,19.2,99.38,99.38,0,0,1-2.18,17.68,93.55,93.55,0,0,1-13.56,32,88.74,88.74,0,0,1-12.82,15.4A1.46,1.46,0,0,0,674.53,623.42ZM528.58,584.13a5.2,5.2,0,0,1-.1.73,14.61,14.61,0,0,0,0,8.25,18,18,0,0,0,5.35,8.38c5.07,4.56,10.3,8.93,15.48,13.37,2.08,1.79,4.48,3.34,5.52,6a33.69,33.69,0,0,1,1.37,5.41c.17.8.44,1.19,1.26.9a12.07,12.07,0,0,1,8.34.37,42.58,42.58,0,0,1,7.79,4.1c4.41,2.79,8.72,5.76,13.56,7.78,4.14,1.73,8.38,2.72,12.76.78a23.19,23.19,0,0,0,2.32-1.36c.73,1.1,1.38,2.21,2.16,3.21,2,2.67,4.19,3.84,7,.63.94-1.07,1.71-2.28,2.55-3.42a1.16,1.16,0,0,1,.26.06c.14.07.28.16.41.25a14.47,14.47,0,0,0,10.78,2.07,27.77,27.77,0,0,0,8.71-3.27c5.49-3.11,10.93-6.3,16.34-9.52,3.29-2,6.65-3.29,10.54-2.16a4,4,0,0,0,1.52.25c.34,0,.92-.46.91-.7-.17-3.89,1.79-6.94,4.15-9.63,1.89-2.16,4.36-3.81,6.52-5.74,3.35-3,6.8-5.92,9.93-9.15s5.35-7,4.92-11.76c-.07-.82-.28-1.62-.43-2.46,1.2-.43,2.37-.8,3.5-1.28,4.18-1.77,4.73-4.07,1.81-7.51-.66-.77-1.39-1.48-2.13-2.27.5-.4.94-.74,1.36-1.1a14.15,14.15,0,0,0,4.59-7,22.8,22.8,0,0,0,.28-10.69c-1.28-6.82-2.84-13.58-4.32-20.36-.69-3.18-.68-6.26,1-9.16.34-.58.69-1.16,1-1.75s.33-1-.37-1.47a22.75,22.75,0,0,1-8.76-10.31c-2.28-5.43-4.42-11-7.71-15.9-2-3-4.2-5.69-7.65-7a31.14,31.14,0,0,0-4.27-1c-.16-1.77-.25-3.59-.5-5.39-.38-2.76-2-3.84-4.75-3.22a6.86,6.86,0,0,0-1.35.47c-1.18.55-2.35,1.13-3.58,1.72-.23-.46-.45-.84-.62-1.23a14.21,14.21,0,0,0-8-7.49c-4.49-1.79-9.23-2.16-14-2.42s-9.65-.47-14.48-.74a11.94,11.94,0,0,1-6.87-2.12c-1.13-.87-2.12-1.93-3.17-2.89-.45-.41-.83-.74-1.34,0-2.1,3.13-5.35,4.52-8.82,5.23a39.25,39.25,0,0,1-7.27.5c-5.87.09-11.76,0-17.5,1.5-4.42,1.14-8.19,3.19-10,7.77a2.75,2.75,0,0,1-.36.51,11.56,11.56,0,0,0-1.81-1,16.64,16.64,0,0,0-4-1.14c-2.09-.18-3.85,1.88-4,4.41-.06,1.35,0,2.7,0,4.08-.39,0-.66.09-.93.1a14.5,14.5,0,0,0-10.27,4.44,33.91,33.91,0,0,0-6.1,9c-2.47,5-4.82,10-7.23,15-1.16,2.42-2.3,4.9-4.67,6.39a40.93,40.93,0,0,1-4.59,2.28c-.6.28-1,.47-.39,1.17,2.6,2.94,3.18,6.62,2.74,10.21-.57,4.65-1.91,9.21-2.83,13.82-.84,4.19-1.56,8.4-1,12.71.41,3.33,1.51,6.28,4.2,8.45.57.46,1.16.88,1.72,1.3-.87,1.1-1.74,2.09-2.48,3.17-1.85,2.73-1.08,4.9,2.06,5.87C526,583.45,527.27,583.77,528.58,584.13Z" transform="translate(-489.24 -435.24)" style="fill:#2373b7" />
    <path d="M528.58,584.13c-1.31-.36-2.58-.68-3.83-1.07-3.14-1-3.92-3.14-2.06-5.87.73-1.08,1.61-2.07,2.48-3.17-.56-.42-1.15-.84-1.72-1.3-2.69-2.18-3.8-5.13-4.2-8.45-.53-4.31.19-8.52,1-12.71.93-4.61,2.27-9.17,2.83-13.82.44-3.59-.14-7.27-2.74-10.21-.62-.7-.21-.89.39-1.17a40.93,40.93,0,0,0,4.59-2.28c2.37-1.49,3.5-4,4.67-6.39,2.4-5,4.75-10,7.23-15a33.91,33.91,0,0,1,6.1-9,14.5,14.5,0,0,1,10.27-4.44c.27,0,.54-.06.93-.1,0-1.38-.05-2.73,0-4.08.12-2.53,1.88-4.59,4-4.41a16.64,16.64,0,0,1,4,1.14,11.56,11.56,0,0,1,1.81,1,2.75,2.75,0,0,0,.36-.51c1.76-4.58,5.53-6.63,10-7.77,5.74-1.48,11.63-1.42,17.5-1.5a39.25,39.25,0,0,0,7.27-.5c3.47-.71,6.72-2.09,8.82-5.23.5-.75.89-.42,1.34,0,1.05,1,2,2,3.17,2.89a11.94,11.94,0,0,0,6.87,2.12c4.83.27,9.65.47,14.48.74s9.49.64,14,2.42a14.21,14.21,0,0,1,8,7.49c.18.39.39.77.62,1.23,1.23-.6,2.4-1.18,3.58-1.72a6.86,6.86,0,0,1,1.35-.47c2.74-.62,4.37.45,4.75,3.22.24,1.8.34,3.63.5,5.39a31.14,31.14,0,0,1,4.27,1c3.45,1.31,5.68,4,7.65,7,3.29,4.94,5.43,10.47,7.71,15.9a22.75,22.75,0,0,0,8.76,10.31c.7.46.7.87.37,1.47s-.68,1.17-1,1.75c-1.7,2.9-1.72,6-1,9.16,1.48,6.78,3,13.54,4.32,20.36a22.8,22.8,0,0,1-.28,10.69,14.15,14.15,0,0,1-4.59,7c-.42.36-.86.7-1.36,1.1.74.79,1.47,1.5,2.13,2.27,2.92,3.45,2.37,5.74-1.81,7.51-1.13.48-2.3.85-3.5,1.28.15.84.35,1.65.43,2.46.43,4.78-1.81,8.55-4.92,11.76s-6.58,6.14-9.93,9.15c-2.16,1.94-4.63,3.58-6.52,5.74-2.36,2.69-4.33,5.74-4.15,9.63,0,.23-.57.65-.91.7a4,4,0,0,1-1.52-.25c-3.9-1.13-7.26.2-10.54,2.16-5.42,3.22-10.86,6.41-16.34,9.52a27.77,27.77,0,0,1-8.71,3.27,14.47,14.47,0,0,1-10.78-2.07c-.13-.09-.27-.17-.41-.25a1.16,1.16,0,0,0-.26-.06c-.84,1.14-1.61,2.35-2.55,3.42-2.83,3.21-5,2-7-.63-.77-1-1.42-2.11-2.16-3.21a23.19,23.19,0,0,1-2.32,1.36c-4.38,1.95-8.61,1-12.76-.78-4.84-2-9.15-5-13.56-7.78a42.58,42.58,0,0,0-7.79-4.1,12.07,12.07,0,0,0-8.34-.37c-.82.29-1.1-.1-1.26-.9a33.69,33.69,0,0,0-1.37-5.41c-1-2.67-3.44-4.22-5.52-6-5.18-4.44-10.41-8.81-15.48-13.37a18,18,0,0,1-5.35-8.38,14.61,14.61,0,0,1,0-8.25A5.2,5.2,0,0,0,528.58,584.13ZM694.39,526l-.77-.59a24.11,24.11,0,0,1-8.12-10c-1.33-3.29-2.79-6.53-4.31-9.73-1.83-3.87-3.82-7.67-7.08-10.58-5.19-4.64-12.39-3.58-15.78,2.51a66.15,66.15,0,0,0-3.72,9,40.53,40.53,0,0,1-4.33,9.3,5.55,5.55,0,0,1-7.52,1.69,5.4,5.4,0,0,1-2.16-7.25,9.58,9.58,0,0,1,1-1.77c1.69-2.22,3.45-4.4,5.14-6.62,2.52-3.29,5.13-6.52,7.47-9.94a7.81,7.81,0,0,0,1.28-7.07,11.84,11.84,0,0,0-5.85-7.15,22.76,22.76,0,0,0-7.08-2.38c-6.18-.73-12.4-1.2-18.62-1.47-5.56-.24-11-.58-15-5.12a17.1,17.1,0,0,1-11.54,5.33c-3.75.2-7.51.22-11.26.34A45.3,45.3,0,0,0,574,476.11c-3.41,1.06-6.45,2.71-7.9,6.23-1.92,4.67-.56,8.71,2.79,12.16,2.14,2.2,4.58,4.11,6.72,6.31a57.29,57.29,0,0,1,5.88,6.75,5.55,5.55,0,0,1-8.88,6.58,7.14,7.14,0,0,1-1-1.31c-1.68-3-3.38-6-5-9-1.89-3.56-3.64-7.21-6.39-10.22-1.46-1.6-3.13-2.92-5.39-3a12.92,12.92,0,0,0-9,2.68,24.91,24.91,0,0,0-6.69,8.66c-3,5.83-5.68,11.77-8.64,17.6a16.47,16.47,0,0,1-3.23,4.54,36,36,0,0,1-5.06,3.43,18.51,18.51,0,0,1,1.88,12.68c-.88,4.21-1.9,8.4-2.76,12.61a33.55,33.55,0,0,0-.61,12.73c1.16,6.45,7.41,10.27,13.51,7.87a51.74,51.74,0,0,0,8.58-4.93c3.19-2,6.28-4.27,10-5.38a5.57,5.57,0,0,1,6.84,3.56,5.32,5.32,0,0,1-2.8,6.83,10.73,10.73,0,0,1-1.88.76Q549,575.8,543,577.31c-3.48.89-7,1.74-10,3.75a7.63,7.63,0,0,0-3.45,4.7,13.32,13.32,0,0,0,1.87,10.77,35.12,35.12,0,0,0,7.12,7.74c4.58,3.87,9.22,7.66,13.82,11.51a13.08,13.08,0,0,1,4.52,6.76c.28,1.07.44,2.17.64,3.18a18.37,18.37,0,0,1,11.88,1.91c2.18,1.16,4.18,2.63,6.33,3.87,4.07,2.35,8.12,4.76,12.3,6.89a14,14,0,0,0,9.08,1.46,10.89,10.89,0,0,0,8.35-9.65c.37-3.64-.51-7.14-1.08-10.68a94,94,0,0,1-1.24-10c-.18-3.55,2.34-5.89,5.81-5.86,3.09,0,5.05,2.18,4.91,5.79-.12,3-.47,6-.88,9-.6,4.35-1.58,8.66-1.27,13.09.16,2.31.62,4.58,2.55,6.12a12.81,12.81,0,0,0,10.31,2.8,28.34,28.34,0,0,0,9.69-3.62c5.47-3.12,10.84-6.44,16.34-9.51a19.58,19.58,0,0,1,5.89-2.16c1.78-.33,3.7.06,5.55.13a18.24,18.24,0,0,1,5.89-10.94c2.81-2.49,5.78-4.8,8.65-7.22,3.4-2.87,6.7-5.84,9.09-9.64,1.57-2.5,2.57-5.17,2-8.17a10.38,10.38,0,0,0-9.15-8.41c-3.67-.54-7.4-.59-11.09-1a48.43,48.43,0,0,1-7.49-1.47,5,5,0,0,1-3.7-5.58,5.84,5.84,0,0,1,7.55-5,67,67,0,0,1,7.83,2.89c4.15,1.63,8.23,3.45,12.42,4.93a7.85,7.85,0,0,0,7.16-.49,12.68,12.68,0,0,0,4.78-5.71c1.58-3.72,1.49-7.6.79-11.43-1-5.72-2.37-11.39-3.57-17.09-.36-1.72-.77-3.43-1.08-5.15A13.33,13.33,0,0,1,694.39,526ZM665.64,490.7c-.21-1.81-.41-3.94-.72-6.06a1.64,1.64,0,0,0-2-1.45c-2.17.15-3.91,1.29-5.66,2.39a.91.91,0,0,0-.26.71,12.23,12.23,0,0,1-2.66,7.91c-2.51,3.4-5.28,6.61-7.86,10a62.27,62.27,0,0,0-4.75,6.73c-1.27,2.2-.36,4.49,1.82,5.7a4.21,4.21,0,0,0,5.75-1.48,19.57,19.57,0,0,0,1.92-3.44c1.44-3.63,2.72-7.32,4.13-11,1.14-2.93,2.52-5.77,5.23-7.57A43.23,43.23,0,0,1,665.64,490.7Zm-2.45,78.22c-3.55,0-5.48,1.58-5.83,4.08-.29,2.05,1.05,3.84,3.57,4.53a29,29,0,0,0,4.67,1c3.77.39,7.56.58,11.33,1,4.49.46,8.34,2.1,10.67,6.29.11.21.54.44.71.38,1.73-.69,3.47-1.35,5.12-2.19a1.69,1.69,0,0,0,.61-2.67,50.62,50.62,0,0,0-3.55-4,.92.92,0,0,0-.75-.16c-3.22.75-6.3,0-9.23-1.18-4.39-1.77-8.67-3.81-13-5.64A44.47,44.47,0,0,0,663.19,568.93ZM555.6,486.78l.11,0a5.83,5.83,0,0,0,.08,1.19c.15.57.28,1.48.64,1.61a12.34,12.34,0,0,1,6.44,5.5c2.23,3.67,4.17,7.53,6.31,11.25a63.31,63.31,0,0,0,4.46,7.06c1.45,1.88,3.68,1.91,5.56.52a4.22,4.22,0,0,0,1.26-5.71,16,16,0,0,0-2.38-3.14c-2.91-2.85-5.94-5.58-8.87-8.4-3.31-3.18-5.75-6.76-5.12-11.69a.94.94,0,0,0-.34-.79,29.8,29.8,0,0,0-4.6-2.15c-1.5-.46-2.54.29-3,1.8A26.38,26.38,0,0,0,555.6,486.78Zm57.25,123.83-.23,0c0-.56,0-1.12,0-1.68a3.73,3.73,0,0,0-2.19-3.68,4.24,4.24,0,0,0-4.51.62,4.84,4.84,0,0,0-1.62,4.87c.66,4.66,1.46,9.3,2.15,14s.33,9-2.91,12.75a.89.89,0,0,0-.14.81,47.39,47.39,0,0,0,3.32,4.5,1.62,1.62,0,0,0,2.71.07,39.84,39.84,0,0,0,3.24-4.11c.13-.17,0-.62-.17-.9a22.87,22.87,0,0,1-1.66-3.66c-.93-3.8-.34-7.63.21-11.43C611.62,618.65,612.25,614.63,612.85,610.61ZM558.71,569c0-3.54-3-5.78-6-4.6a41.06,41.06,0,0,0-6.17,3.1c-2.9,1.75-5.62,3.78-8.52,5.54-3.35,2-6.94,3-10.86,1.69a1,1,0,0,0-.84.16,39.29,39.29,0,0,0-3.09,3.93,1.53,1.53,0,0,0,.74,2.47,45,45,0,0,0,5,1.51.83.83,0,0,0,.67-.31,12.71,12.71,0,0,1,6.67-4.43c3.84-1.17,7.77-2.07,11.64-3.16,2.83-.8,5.65-1.66,8.41-2.65A3.46,3.46,0,0,0,558.71,569Z" transform="translate(-489.24 -435.24)" style="fill:#0b0c11" />
    <path d="M694.39,526a13.33,13.33,0,0,0-2.34,9.86c.3,1.73.71,3.44,1.08,5.15,1.2,5.69,2.53,11.37,3.57,17.09.7,3.83.79,7.71-.79,11.43a12.68,12.68,0,0,1-4.78,5.71,7.85,7.85,0,0,1-7.16.49c-4.2-1.48-8.28-3.29-12.42-4.93a67,67,0,0,0-7.83-2.89,5.84,5.84,0,0,0-7.55,5,5,5,0,0,0,3.7,5.58,48.43,48.43,0,0,0,7.49,1.47c3.68.45,7.42.5,11.09,1a10.38,10.38,0,0,1,9.15,8.41c.61,3-.4,5.68-2,8.17-2.39,3.81-5.69,6.78-9.09,9.64-2.87,2.42-5.84,4.73-8.65,7.22A18.24,18.24,0,0,0,662,625.36c-1.86-.07-3.77-.46-5.55-.13a19.58,19.58,0,0,0-5.89,2.16c-5.5,3.07-10.87,6.39-16.34,9.51a28.34,28.34,0,0,1-9.69,3.62,12.81,12.81,0,0,1-10.31-2.8c-1.93-1.54-2.39-3.81-2.55-6.12-.31-4.43.67-8.74,1.27-13.09.41-3,.76-6,.88-9,.14-3.61-1.82-5.76-4.91-5.79-3.47,0-6,2.32-5.81,5.86a94,94,0,0,0,1.24,10c.57,3.55,1.45,7,1.08,10.68a10.89,10.89,0,0,1-8.35,9.65,14,14,0,0,1-9.08-1.46c-4.19-2.13-8.23-4.54-12.3-6.89-2.14-1.23-4.15-2.71-6.33-3.87a18.37,18.37,0,0,0-11.88-1.91c-.2-1-.36-2.11-.64-3.18a13.08,13.08,0,0,0-4.52-6.76c-4.6-3.84-9.24-7.64-13.82-11.51a35.12,35.12,0,0,1-7.12-7.74,13.32,13.32,0,0,1-1.87-10.77,7.63,7.63,0,0,1,3.45-4.7c3.06-2,6.55-2.87,10-3.75q6-1.52,11.91-3.09a10.73,10.73,0,0,0,1.88-.76,5.32,5.32,0,0,0,2.8-6.83,5.57,5.57,0,0,0-6.84-3.56c-3.69,1.1-6.77,3.33-10,5.38a51.74,51.74,0,0,1-8.58,4.93c-6.1,2.4-12.36-1.41-13.51-7.87a33.55,33.55,0,0,1,.61-12.73c.86-4.22,1.88-8.4,2.76-12.61a18.51,18.51,0,0,0-1.88-12.68,36,36,0,0,0,5.06-3.43,16.47,16.47,0,0,0,3.23-4.54c3-5.83,5.69-11.77,8.64-17.6a24.91,24.91,0,0,1,6.69-8.66,12.92,12.92,0,0,1,9-2.68c2.25.12,3.93,1.44,5.39,3,2.75,3,4.5,6.66,6.39,10.22,1.61,3,3.3,6,5,9a7.14,7.14,0,0,0,1,1.31,5.55,5.55,0,0,0,8.88-6.58,57.29,57.29,0,0,0-5.88-6.75c-2.14-2.2-4.58-4.11-6.72-6.31-3.35-3.45-4.71-7.49-2.79-12.16,1.45-3.52,4.49-5.17,7.9-6.23a45.3,45.3,0,0,1,12.19-1.62c3.75-.12,7.51-.14,11.26-.34A17.1,17.1,0,0,0,609,468.81c4,4.53,9.43,4.87,15,5.12,6.22.27,12.44.74,18.62,1.47a22.76,22.76,0,0,1,7.08,2.38,11.84,11.84,0,0,1,5.85,7.15,7.81,7.81,0,0,1-1.28,7.07c-2.33,3.42-4.95,6.65-7.47,9.94-1.7,2.22-3.45,4.4-5.14,6.62a9.58,9.58,0,0,0-1,1.77,5.4,5.4,0,0,0,2.16,7.25,5.55,5.55,0,0,0,7.52-1.69,40.53,40.53,0,0,0,4.33-9.3,66.15,66.15,0,0,1,3.72-9c3.39-6.1,10.59-7.15,15.78-2.51,3.26,2.91,5.25,6.71,7.08,10.58,1.52,3.21,3,6.44,4.31,9.73a24.11,24.11,0,0,0,8.12,10Zm-85.32-3.4c-1.56-1.3-3-2.61-4.5-3.75-7.36-5.44-15.56-6-22.91-1.27-11.9,7.71-16.75,19.83-14.29,33.38a53.6,53.6,0,0,0,7.94,19.48c8.3,12.93,19.57,22.66,32.87,30.14a2.08,2.08,0,0,0,1.72-.09,92.61,92.61,0,0,0,29.48-25.37c5.82-7.81,10.18-16.31,11.44-26.12,1.62-12.68-2.89-22.8-13-30.42-5.45-4.09-11.53-5.35-18.1-3.1A26.45,26.45,0,0,0,609.06,522.57Zm27,66.59c-.2.48-.45.78-.4,1a2.48,2.48,0,0,0,.52.92l20.35,28c.61.84,1.19,1.71,1.86,2.5.19.23.65.23,1,.33a5.38,5.38,0,0,0,0-1c0-.21-.27-.39-.41-.58l-8.16-11.25q-6.83-9.4-13.67-18.8A14.61,14.61,0,0,0,636,589.15ZM654.74,540l.95-.32,29.41-9.55c2.2-.71,4.4-1.41,6.58-2.17.27-.09.42-.53.63-.81a9.15,9.15,0,0,0-1-.32c-.14,0-.3.08-.45.13l-30.66,10c-1.78.58-3.56,1.14-5.33,1.76a1.17,1.17,0,0,0-.62.71C654.21,539.54,654.58,539.8,654.74,540Zm-69.65,49.09c-.17-.21-.41-.61-.48-.59a2.37,2.37,0,0,0-1,.64q-11.1,15.23-22.14,30.5c-.24.33-.18.88-.26,1.33.41-.21,1-.3,1.22-.63q11.12-15.22,22.17-30.49C584.73,589.62,584.88,589.38,585.08,589.08Zm-59-61c-.13.07-.58.2-.58.35a1.28,1.28,0,0,0,.38.85c.18.18.51.2.77.29q17.5,5.67,35,11.33c.58.19,1.47,1,1.79-.09s-.87-.86-1.41-1q-15.2-5-30.43-9.91Zm83.67-34.26q0-9.24,0-18.48a1.81,1.81,0,0,0,0-.71,5,5,0,0,0-.61-.83,5.22,5.22,0,0,0-.55.77,1.47,1.47,0,0,0,0,.59q0,18.66,0,37.32c0,.12,0,.27,0,.36.19.32.41.63.62.94a7.14,7.14,0,0,0,.55-.88,1.55,1.55,0,0,0,0-.59Q609.72,503,609.72,493.8ZM591,510.49a26.6,26.6,0,0,0-2.3-9.08,14.12,14.12,0,0,0-4.52-5.62c-.31-.22-.83-.13-1.26-.18a4.5,4.5,0,0,0,.5,1.12A41.27,41.27,0,0,1,587,501a21.8,21.8,0,0,1,2.74,9.2c0,.39.41.74.62,1.11ZM664.66,559c-2.28.31-4.57.59-6.85,1-.36.06-1,.56-.93.77.11.74.68.49,1.22.38,3.51-.73,7-1.09,10.53,0a36.17,36.17,0,0,1,4.29,2,3.51,3.51,0,0,0,1.05.12,3.8,3.8,0,0,0-.35-1.08,2.92,2.92,0,0,0-.87-.62A18.64,18.64,0,0,0,664.66,559Zm.49-3.33a28.83,28.83,0,0,1,8.67,1.9c.33.13.8-.11,1.21-.17-.27-.32-.48-.83-.82-.93a46.4,46.4,0,0,0-5.75-1.55,20.89,20.89,0,0,0-9.59.64c-.39.12-.67.61-1,.93a4.14,4.14,0,0,0,1.28.22C661.17,556.37,663.16,556,665.16,555.65Zm-71.51,58.56c.13.69.32,2,.66,3.33.11.43.61.76.93,1.13a6.76,6.76,0,0,0,.2-1.42,38.61,38.61,0,0,1-.41-5,21.7,21.7,0,0,1,3.31-9.5c.17-.3.06-.76.08-1.14-.38.17-.93.24-1.11.54A23.71,23.71,0,0,0,593.65,614.21Zm-39.8-58.49c-4.4.09-7.78.66-10.68,2.86-.27.21-.35.68-.52,1a3.58,3.58,0,0,0,1.22-.07,41.87,41.87,0,0,1,4.08-1.89c3.56-1.11,7.16-.71,10.75,0,.34.07.75-.22,1.12-.34-.27-.27-.51-.71-.83-.77C557,556.18,555,555.9,553.85,555.72Zm76.8-45.19.53.7a6.52,6.52,0,0,0,.67-.75,1.42,1.42,0,0,0,.11-.58c.67-5.22,2-10.09,6.59-13.41.18-.13.16-.53.24-.81-.31-.06-.7-.26-.92-.14a6.88,6.88,0,0,0-1.42,1.08C632.5,500.33,631.22,505.15,630.65,510.53Zm-12.4,104.73c0-3.7,0-6.5-1.32-9.07a9.52,9.52,0,0,0-1.58-2c-.14-.15-.62,0-.94,0,0,.28,0,.68.14.83a8.24,8.24,0,0,1,2.37,6.31c0,2.78-.29,5.56-.4,8.34a3.38,3.38,0,0,0,.43,1.16c.26-.32.68-.62.74-1C617.95,618,618.13,616.19,618.24,615.26Zm30.87-91.61.34-.29.55-.2a21.08,21.08,0,0,0,8.59-5.87,32.84,32.84,0,0,0,3.1-5.31c.11-.2-.22-.63-.35-1-.26.18-.67.31-.75.55-1.28,4.12-4.28,6.71-7.8,8.82-1.09.65-2.28,1.13-3.39,1.74a1.26,1.26,0,0,0-.54.76C648.81,523.11,649,523.39,649.11,523.65Zm-96.65,60.21c.18,0,.46,0,.74,0a9.36,9.36,0,0,0,.94-.13c4.83-1,8.46-3.91,11.58-7.54.19-.23.06-.74.07-1.11a3,3,0,0,0-1,.36c-1.51,1.35-2.9,2.85-4.49,4.1a14.36,14.36,0,0,1-8.56,3.25,3.47,3.47,0,0,0-1.13.48,11.77,11.77,0,0,0,1.14.69C551.93,584,552.17,583.89,552.46,583.86Zm107.8-19.49c-.62.18-1.85.49-3,.93-.25.09-.32.68-.47,1a6.08,6.08,0,0,0,1.06,0c1.31-.2,2.68-.81,3.92-.59a60.77,60.77,0,0,1,7.56,2.05c1.09.34,2.08,1,3.15,1.41.26.1.65-.14,1-.22-.15-.27-.23-.64-.46-.8a8.31,8.31,0,0,0-1.37-.72A27.65,27.65,0,0,0,660.26,564.37Zm-36.14,51a23.38,23.38,0,0,0-3.72-12.26c-.17-.27-.68-.32-1-.48a3.3,3.3,0,0,0,.06,1.16c.4.9,1,1.74,1.37,2.64,1.75,3.93,2.86,7.94,1.4,12.26-.08.25.2.63.31.94.28-.21.76-.37.82-.63C623.7,617.53,624,616.09,624.12,615.32Zm45.65-66.08c-2,.19-3.55.26-5.08.52-2,.34-4,.82-5.93,1.31-.27.07-.44.52-.66.79a6.66,6.66,0,0,0,1,.35c.17,0,.38-.08.57-.14a36.05,36.05,0,0,1,14.65-1.26c.29,0,.64-.26,1-.41-.27-.26-.51-.72-.81-.75C672.74,549.45,671,549.34,669.77,549.24Zm-66.9-41.42.13,0c-.63-4.73-1.24-9.47-1.91-14.2,0-.33-.52-.61-.8-.91-.13.37-.4.75-.36,1.1.53,4.95,1.11,9.89,1.68,14.83a3.77,3.77,0,0,0,.15,1.06,1,1,0,0,0,.65.49c.11,0,.42-.35.45-.56A16.86,16.86,0,0,0,602.87,507.82Zm58.57,83.33.65-.46c-.3-.29-.55-.75-.9-.84a22.54,22.54,0,0,1-12.43-8c-.21-.27-.68-.34-1-.5,0,.41-.13,1,.08,1.21a39.57,39.57,0,0,0,3.82,3.94A22.84,22.84,0,0,0,661.44,591.15Zm-34.31,23.22c0,.61-.11,1.41-.07,2.2,0,.28.32.54.49.82.23-.26.65-.5.67-.77a22.81,22.81,0,0,0-3.94-15.32c-.2-.29-.74-.35-1.12-.52.05.42,0,.92.17,1.23A22.63,22.63,0,0,1,627.13,614.37Zm12.08-3.77c-.22-.5-.38-1-.62-1.37q-3.29-5.83-6.6-11.64a6.07,6.07,0,0,0-.85-1.29,3.17,3.17,0,0,0-1-.47,5.81,5.81,0,0,0,0,1c0,.22.24.41.36.61l7.33,13c.1.17.14.44.29.51a1.14,1.14,0,0,0,.76.11C639,611.07,639.11,610.77,639.22,610.6ZM588.49,596c-.18-.22-.39-.59-.51-.57a1.39,1.39,0,0,0-.84.49c-.88,1.33-1.74,2.67-2.52,4.06q-2.69,4.8-5.26,9.66c-.16.31.07.83.12,1.25.32-.23.76-.38.93-.69,2.52-4.39,5-8.8,7.49-13.2C588.07,596.65,588.26,596.35,588.49,596ZM558.22,509l-.43,0a3.29,3.29,0,0,0-.14,1.21,13.81,13.81,0,0,0,4,6.15,23.6,23.6,0,0,0,7.64,4.82c.31.12.75-.08,1.13-.13a9.1,9.1,0,0,0-.53-.89c-.08-.11-.28-.13-.43-.2-4.75-2.26-9-5-10.75-10.4C558.61,509.4,558.37,509.23,558.22,509Zm-9.69,70.3c2.46-.62,4.85-1.12,7.16-1.83a13.65,13.65,0,0,0,6.34-3.67,5.55,5.55,0,0,0,1-1.58c.12-.3-.13-.75-.21-1.13a4.36,4.36,0,0,0-.87.59,13.5,13.5,0,0,1-1.93,2.22,15.54,15.54,0,0,1-4,2.1c-2.46.79-5,1.28-7.51,1.94-.29.08-.51.46-.76.7Zm38.31-69.51a32.67,32.67,0,0,0-1.26-3.85,28.47,28.47,0,0,0-6.47-8.53c-.26-.25-.78-.23-1.18-.34a3.41,3.41,0,0,0,.37,1.21c1.1,1.32,2.38,2.49,3.4,3.87,2,2.74,4.3,5.43,3.58,9.27,0,.17.25.53.45.58a.74.74,0,0,0,.66-.3A15.24,15.24,0,0,0,586.84,509.83Zm-13.44,8.65a6.22,6.22,0,0,0,1-.85c0-.06-.29-.59-.48-.62-2.78-.35-4.6-2.16-6.12-4.23s-2.8-4.43-4.23-6.63c-.18-.28-.65-.37-1-.55,0,.36-.22.79-.08,1.06,1.8,3.57,3.78,7.05,7,9.59A28.16,28.16,0,0,0,573.4,518.47Zm90.67,69c.15-.09,1-.35,1-.64,0-1-.85-.5-1.36-.6a29.37,29.37,0,0,1-3.5-.67c-3.67-1.2-6.52-3.61-9.09-6.41-.28-.3-.83-.35-1.25-.52a3.64,3.64,0,0,0,.39,1.32,22.3,22.3,0,0,0,2.33,2.4C655.74,585.14,659.26,587.21,664.07,587.44Zm3.08-3.69c.18-.15.6-.36.58-.51a1.28,1.28,0,0,0-.55-.74c-.21-.14-.54-.09-.81-.17-2.61-.71-5.25-1.29-7.8-2.18a8.2,8.2,0,0,1-5.1-4.08c-.11-.22-.54-.29-.82-.43-.1.28-.35.63-.26.81a7.28,7.28,0,0,0,1.26,2C657.37,582,662.22,582.79,667.15,583.75ZM544.19,543l-1,.78a3.41,3.41,0,0,0,1,.61c1.33.27,2.68.39,4,.67,3.62.77,7.22,1.61,10.85,2.37a4.23,4.23,0,0,0,1.45-.23c-.37-.31-.69-.75-1.12-.89a31.11,31.11,0,0,0-3.35-.86C552.14,544.67,548.24,543.88,544.19,543Zm125-17-.09-.46c-.37,0-.79-.16-1.09,0q-7.18,3.22-14.32,6.52c-.32.15-.51.58-.76.89.4.09.87.34,1.2.23,1.39-.49,2.75-1,4.09-1.66,3.35-1.55,6.69-3.14,10-4.73A5.33,5.33,0,0,0,669.21,526Zm5.11,17.26c-1.18.18-2.14.27-3.07.46-4.25.9-8.49,1.81-12.73,2.78-.32.07-.55.58-.82.88a3.26,3.26,0,0,0,1.11.25c.82-.12,1.62-.4,2.44-.56,4.3-.86,8.6-1.7,12.9-2.58.31-.06.56-.42.84-.63ZM560.64,561.33c-.51-.44-.74-.78-1-.85a16.88,16.88,0,0,0-3.92-.72c-4.16.07-7.88,1.73-11.49,3.61-.3.16-.44.62-.66.94a3.12,3.12,0,0,0,1.23.07c1.37-.54,2.66-1.27,4-1.76,3.47-1.22,6.95-2.72,10.69-.85C559.7,561.86,560.08,561.55,560.64,561.33Zm12.27,21.29a3.27,3.27,0,0,0-1.18-.16c-.25.08-.42.45-.62.7a38.14,38.14,0,0,1-10.49,9.31c-.49.28-1.52.32-1.06,1.28.08.16,1.14,0,1.6-.22a38,38,0,0,0,11.26-10A8.13,8.13,0,0,0,572.92,582.62Zm43.82-74,.17,0a1.62,1.62,0,0,0,0,.59,9.42,9.42,0,0,0,.55,1c.22-.32.59-.63.63-1,.43-4.08.8-8.17,1.23-12.25.11-1.11.4-2.2.51-3.3,0-.33-.28-.69-.43-1-.25.27-.51.52-.73.8a1,1,0,0,0-.09.46Zm-21.39,1.08c-.17-1.23-.28-2.43-.5-3.6a23.12,23.12,0,0,0-5.27-10.85c-.23-.26-.72-.29-1.09-.43a3.35,3.35,0,0,0,.18,1.23c.38.65.94,1.19,1.37,1.81a22.63,22.63,0,0,1,4,12.08,1.85,1.85,0,0,0,.37.9.73.73,0,0,0,.61-.15A4,4,0,0,0,595.34,509.69Zm38.57,104.2a37.64,37.64,0,0,0-6.41-15c-.13-.19-.59-.15-.89-.22,0,.31-.18.7-.06.93.5.91,1.12,1.74,1.64,2.64a35,35,0,0,1,4.44,11.41c.06.33.49.59.75.88ZM651,526.83c.43-.14.74-.23,1-.33a21.51,21.51,0,0,0,8.35-5.45,42.12,42.12,0,0,0,3.45-4.43c.17-.23,0-.74-.08-1.11a5.23,5.23,0,0,0-.94.5,2.84,2.84,0,0,0-.46.69,22.23,22.23,0,0,1-9,7.9c-.78.38-1.65.6-2.43,1a1.2,1.2,0,0,0-.44.83C650.52,526.52,650.88,526.71,651,526.83Zm-102.93-2.65c-.18.14-.45.24-.51.41a.75.75,0,0,0,.14.64,2.62,2.62,0,0,0,.8.52c3.42,1.61,6.84,3.22,10.28,4.79,1.26.58,2.56,1.1,3.87,1.57.26.09.65-.19,1-.3a8.2,8.2,0,0,0-.53-.8c-.09-.11-.28-.14-.43-.2l-13.91-6.32Zm16.39,74.65a12.67,12.67,0,0,0,1.2-1q5-5.44,9.89-10.92c.27-.3.48-1.11.32-1.25-.64-.58-.94.15-1.28.54-2.27,2.57-4.51,5.18-6.82,7.72-1.12,1.24-2.38,2.36-3.54,3.57a1.68,1.68,0,0,0-.34.93C563.89,598.5,564.23,598.64,564.49,598.83Zm-9.65-10,.3-.08a23.1,23.1,0,0,0,13.49-8.64c.19-.25.06-.75.08-1.13-.35.13-.83.17-1,.42a21.3,21.3,0,0,1-8.13,6.5c-1.48.67-3.07,1.07-4.59,1.66a1.41,1.41,0,0,0-.63.8C554.28,588.43,554.7,588.69,554.83,588.81Zm5.06-34.95,0-.49a5.75,5.75,0,0,0-1.05-.56,22.74,22.74,0,0,0-15.57,1c-.29.12-.44.6-.65.91.38.06.83.28,1.14.15a22.38,22.38,0,0,1,11.74-1.5c1.1.17,2.17.51,3.27.71A3.47,3.47,0,0,0,559.89,553.87ZM647,521.17a26.2,26.2,0,0,0,3.65-1.89c3.38-2.47,5.42-6,7.29-9.65.19-.37,0-.91,0-1.37-.37.26-.86.44-1.09.79-1.52,2.29-2.87,4.7-4.51,6.89a8.53,8.53,0,0,1-5.63,3.76c-.23,0-.42.35-.63.54Zm-82.62,6.91.73-.55c-.26-.28-.47-.71-.8-.83a38.67,38.67,0,0,1-12.85-7.63c-.26-.24-.78-.21-1.18-.3.13.4.13.93.4,1.19a33.34,33.34,0,0,0,9.49,6.31C561.48,526.9,562.84,527.44,564.34,528.08Zm89.49,72.13c.21-.17.54-.32.53-.43a1.57,1.57,0,0,0-.33-.9c-1-1-2-1.93-3-3-2.56-2.84-5.06-5.74-7.61-8.59-.23-.25-.72-.27-1.08-.4,0,.38-.08.88.12,1.11q5.24,5.82,10.55,11.57A5.93,5.93,0,0,0,653.83,600.21Zm-51.64,3.19c-.29.21-.64.34-.78.59a18.64,18.64,0,0,0-2,3.86c-1.09,3.92-.6,7.91,0,11.86,0,.25.43.45.66.68a4.13,4.13,0,0,0,.49-.89,2.85,2.85,0,0,0-.07-.83c-.14-2.66-.43-5.33-.35-8,.07-2.22.53-4.45,2.35-6.07a.91.91,0,0,0,.2-.73C602.7,603.7,602.41,603.58,602.19,603.4Zm-34.43-79.08.08-.48a4.86,4.86,0,0,0-.89-.57,22.72,22.72,0,0,1-11.5-9.34c-.2-.32-.71-.44-1.08-.65,0,.45-.09,1,.11,1.33a20.18,20.18,0,0,0,6,6.55,55.85,55.85,0,0,0,6,3.19C566.84,524.52,567.34,524.34,567.76,524.32ZM626.27,509a2.53,2.53,0,0,0,0,.83,6.32,6.32,0,0,0,.54,1c.22-.34.62-.68.63-1A22.77,22.77,0,0,1,632.78,496c.23-.28.18-.8.25-1.21-.4.15-.93.19-1.17.47A23.2,23.2,0,0,0,626.27,509Zm-4.77,0a.67.67,0,0,0,0,.24c.17.5.33,1.41.54,1.43,1,.07.62-.79.65-1.31a39.18,39.18,0,0,1,2.87-13.24,10.72,10.72,0,0,0,.6-1.29c.07-.24-.11-.55-.18-.83-.3.09-.68.09-.89.29a2.93,2.93,0,0,0-.49.94A39.12,39.12,0,0,0,621.5,509Zm-32,104.5a19.27,19.27,0,0,0,.17,2,.8.8,0,0,0,.63.49c.2,0,.4-.37.53-.62s0-.31,0-.47a22.39,22.39,0,0,1,3.84-14.29c.07-.1.19-.2.19-.29a7.8,7.8,0,0,0-.07-.84c-.29,0-.66,0-.85.11a4.44,4.44,0,0,0-.78,1A24.09,24.09,0,0,0,589.54,613.47Zm46.27-103.24a5.79,5.79,0,0,0,.26,1.33c.09.23.51.33.78.49.13-.25.41-.54.36-.76a6.85,6.85,0,0,1,1.27-5.56c1.76-2.55,3.81-4.9,5.69-7.36a3.9,3.9,0,0,0,.39-1.28c-.4.12-.93.12-1.18.39a61,61,0,0,0-4.12,4.67A14.58,14.58,0,0,0,635.81,510.22Zm-36.38-1.54a36.38,36.38,0,0,0-3.33-14c-.17-.34-.65-.54-1-.8,0,.45-.22,1-.06,1.33A35.21,35.21,0,0,1,598,506.27c.13,1.27.2,2.55.35,3.81,0,.23.35.42.54.63.21-.24.53-.46.59-.73A5.33,5.33,0,0,0,599.43,508.68Zm45.35,75.06c-.26.19-.55.29-.59.46a1,1,0,0,0,.12.75c.85,1.05,1.7,2.11,2.62,3.1a33.06,33.06,0,0,0,9.21,7.31c.3.15.76,0,1.15,0-.16-.33-.24-.84-.5-1a37.69,37.69,0,0,1-11.27-9.83C645.3,584.28,645.05,584,644.78,583.74Zm-97.35-36.2c-.91.07-2.27.13-3.61.32-.38.05-.7.47-1.05.72.38.16.79.5,1.15.45a38,38,0,0,1,14.69,1.34,3.57,3.57,0,0,0,1.36-.22c-.33-.31-.62-.77-1-.89A42.39,42.39,0,0,0,547.42,547.53ZM667,521.5c-.15-.26-.24-.55-.34-.56a1.38,1.38,0,0,0-.85.17c-.87.7-1.66,1.5-2.54,2.18A40.77,40.77,0,0,1,652.68,529c-.31.12-.49.57-.73.87.37.09.79.34,1.09.23a37.29,37.29,0,0,0,13.28-7.8A7.74,7.74,0,0,0,667,521.5Zm-83,90.71.51.66c.26-.23.69-.44.74-.71.85-5.09,3.13-9.56,5.86-13.86a3.33,3.33,0,0,0,.2-1.23c-.41.19-1,.28-1.2.6-1,1.54-1.95,3.1-2.79,4.73A32.07,32.07,0,0,0,583.94,612.21Zm1.42-17.47c-.17-.21-.41-.6-.49-.57a1.9,1.9,0,0,0-.92.59q-3.71,5.58-7.34,11.21c-.2.31-.07.83-.1,1.25.37-.19.88-.29,1.08-.6,2.44-3.64,4.84-7.32,7.24-11C585,595.37,585.16,595.09,585.36,594.74Zm-15.9,6.82.4.33a5.76,5.76,0,0,1,.54-1.09c2.7-3.4,5.44-6.78,8.13-10.2a3.56,3.56,0,0,0,.34-1.33c-.41.18-1,.24-1.22.55-1.91,2.3-3.77,4.65-5.64,7-.92,1.15-1.87,2.28-2.76,3.46a1.75,1.75,0,0,0-.23,1C569,601.33,569.3,601.45,569.46,601.56Zm100-70.9,0-.44c-.4-.06-.86-.28-1.19-.16q-6.39,2.35-12.73,4.82c-.29.11-.44.61-.65.93.35.07.75.31,1,.2,4.29-1.58,8.57-3.21,12.85-4.84A3.35,3.35,0,0,0,669.42,530.66Zm-55.25-29.14h0c.11-2.19.24-4.39.29-6.58,0-.36-.37-.73-.57-1.09-.21.33-.57.65-.59,1q-.38,6.64-.65,13.28c0,.41.33.84.51,1.26.23-.39.63-.76.66-1.17C614,506,614.06,503.75,614.17,501.52Zm25.92,87.23c-.22.19-.5.33-.48.44a2.2,2.2,0,0,0,.33,1q4.17,5.25,8.4,10.46c.21.26.69.31,1,.46,0-.41.1-.94-.11-1.21-2.79-3.55-5.62-7.06-8.45-10.57A5.3,5.3,0,0,0,640.09,588.75ZM563.14,536.8l.07-.43a3.83,3.83,0,0,0-.78-.58c-1.1-.46-2.22-.87-3.34-1.29-3.16-1.19-6.32-2.39-9.49-3.56a1.43,1.43,0,0,0-.88,0c-.12,0-.26.52-.18.6a2.73,2.73,0,0,0,.94.65c2.37.92,4.76,1.8,7.14,2.7,1.78.67,3.56,1.38,5.36,2A3,3,0,0,0,563.14,536.8Zm42.69-34.9h0c-.13-2.35-.23-4.71-.41-7.05,0-.35-.44-.67-.67-1-.17.36-.51.72-.5,1.07q.28,6.7.67,13.39c0,.37.42.71.64,1.07.18-.38.53-.76.52-1.13C606.06,506.13,605.93,504,605.83,501.91Zm37.1,104.58c-.15-.29-.26-.55-.41-.77-2.43-3.7-4.85-7.4-7.31-11.08-.21-.32-.71-.45-1.07-.67,0,.45-.11,1,.1,1.34,1.42,2.26,2.9,4.48,4.37,6.71,1,1.53,2,3.08,3,4.58a1.4,1.4,0,0,0,.85.41C642.61,607,642.78,606.68,642.93,606.48Zm-96-67.65-.67.51c.28.27.53.68.86.78q6.43,1.83,12.89,3.55c.36.1.82-.18,1.24-.28-.3-.29-.56-.75-.91-.85-2.94-.85-5.91-1.64-8.86-2.45Zm125.84.36,0-.41a2.81,2.81,0,0,0-1-.18c-1.32.3-2.61.68-3.92,1-3.1.85-6.21,1.68-9.3,2.57-.31.09-.5.55-.75.84.29.13.62.43.85.37q6.73-1.79,13.44-3.67A2.83,2.83,0,0,0,672.74,539.19Z" transform="translate(-489.24 -435.24)" style="fill:#fcfcfc" />
    <path d="M665.64,490.7a43.23,43.23,0,0,0-5,2.47c-2.71,1.8-4.09,4.64-5.23,7.57-1.41,3.64-2.7,7.32-4.13,11a19.57,19.57,0,0,1-1.92,3.44,4.21,4.21,0,0,1-5.75,1.48c-2.18-1.21-3.09-3.5-1.82-5.7a62.27,62.27,0,0,1,4.75-6.73c2.58-3.35,5.35-6.56,7.86-10A12.23,12.23,0,0,0,657,486.3a.91.91,0,0,1,.26-.71c1.76-1.1,3.5-2.24,5.66-2.39a1.64,1.64,0,0,1,2,1.45C665.23,486.76,665.43,488.89,665.64,490.7Z" transform="translate(-489.24 -435.24)" style="fill:#fbfbfb" />
    <path d="M663.19,568.93a44.47,44.47,0,0,1,4.27,1.4c4.37,1.83,8.65,3.87,13,5.64,2.93,1.18,6,1.93,9.23,1.18a.92.92,0,0,1,.75.16,50.62,50.62,0,0,1,3.55,4,1.69,1.69,0,0,1-.61,2.67c-1.65.85-3.39,1.51-5.12,2.19-.17.07-.6-.17-.71-.38-2.33-4.19-6.18-5.83-10.67-6.29-3.77-.39-7.56-.58-11.33-1a29,29,0,0,1-4.67-1c-2.52-.69-3.86-2.48-3.57-4.53C657.71,570.51,659.64,568.92,663.19,568.93Z" transform="translate(-489.24 -435.24)" style="fill:#fbfbfb" />
    <path d="M555.6,486.78a26.38,26.38,0,0,1,.55-2.92c.45-1.52,1.5-2.26,3-1.8a29.8,29.8,0,0,1,4.6,2.15.94.94,0,0,1,.34.79c-.62,4.92,1.81,8.51,5.12,11.69,2.94,2.82,6,5.55,8.87,8.4a16,16,0,0,1,2.38,3.14,4.22,4.22,0,0,1-1.26,5.71c-1.88,1.39-4.11,1.37-5.56-.52a63.31,63.31,0,0,1-4.46-7.06c-2.15-3.73-4.08-7.58-6.31-11.25a12.34,12.34,0,0,0-6.44-5.5c-.36-.13-.49-1-.64-1.61a5.83,5.83,0,0,1-.08-1.19Z" transform="translate(-489.24 -435.24)" style="fill:#fbfbfb" />
    <path d="M612.85,610.61c-.61,4-1.23,8-1.81,12.07-.55,3.8-1.14,7.62-.21,11.43a22.87,22.87,0,0,0,1.66,3.66c.13.28.3.73.17.9a39.84,39.84,0,0,1-3.24,4.11,1.62,1.62,0,0,1-2.71-.07,47.39,47.39,0,0,1-3.32-4.5.89.89,0,0,1,.14-.81c3.24-3.74,3.6-8.13,2.91-12.75s-1.48-9.29-2.15-14a4.84,4.84,0,0,1,1.62-4.87,4.24,4.24,0,0,1,4.51-.62,3.73,3.73,0,0,1,2.19,3.68c0,.56,0,1.12,0,1.68Z" transform="translate(-489.24 -435.24)" style="fill:#fbfbfb" />
    <path d="M558.71,569a3.46,3.46,0,0,1-2.36,3.24c-2.76,1-5.58,1.85-8.41,2.65-3.87,1.1-7.79,2-11.64,3.16a12.71,12.71,0,0,0-6.67,4.43.83.83,0,0,1-.67.31,45,45,0,0,1-5-1.51,1.53,1.53,0,0,1-.74-2.47,39.29,39.29,0,0,1,3.09-3.93,1,1,0,0,1,.84-.16c3.91,1.29,7.51.34,10.86-1.69,2.89-1.76,5.62-3.79,8.52-5.54a41.06,41.06,0,0,1,6.17-3.1C555.7,563.22,558.71,565.46,558.71,569Z" transform="translate(-489.24 -435.24)" style="fill:#fbfbfb" />
    <path d="M609.06,522.57a26.45,26.45,0,0,1,10.63-7.12c6.57-2.25,12.65-1,18.1,3.1,10.14,7.62,14.65,17.74,13,30.42-1.26,9.82-5.62,18.31-11.44,26.12a92.61,92.61,0,0,1-29.48,25.37,2.08,2.08,0,0,1-1.72.09c-13.3-7.48-24.57-17.21-32.87-30.14a53.6,53.6,0,0,1-7.94-19.48c-2.45-13.55,2.39-25.67,14.29-33.38,7.35-4.76,15.55-4.17,22.91,1.27C606.1,520,607.51,521.26,609.06,522.57ZM567.94,545.3c.12,1.08.23,3.17.6,5.2a51.94,51.94,0,0,0,6.39,16.89,78.55,78.55,0,0,0,12,15.55,97.85,97.85,0,0,0,21.21,16.15,1.93,1.93,0,0,0,1.61,0,89.67,89.67,0,0,0,15.45-10.73,84.27,84.27,0,0,0,12.78-13.47c6.25-8.4,11-17.42,11.83-28.11a29.89,29.89,0,0,0-1.38-12.16,30.65,30.65,0,0,0-12.76-16,17.08,17.08,0,0,0-16.54-1.6,25.09,25.09,0,0,0-9,6.34c-1,1.13-1.08,1-2.25,0a49.28,49.28,0,0,0-5.61-4.58,18,18,0,0,0-12.41-3,18.81,18.81,0,0,0-8.91,3.76C572.59,525.7,568.09,533.86,567.94,545.3Z" transform="translate(-489.24 -435.24)" style="fill:#140a09" />
    <path d="M636,589.15a14.61,14.61,0,0,1,1,1.12q6.84,9.39,13.67,18.8l8.16,11.25c.14.19.36.37.41.58a5.38,5.38,0,0,1,0,1c-.34-.1-.8-.1-1-.33-.67-.79-1.25-1.66-1.86-2.5l-20.35-28a2.48,2.48,0,0,1-.52-.92C635.59,589.93,635.83,589.64,636,589.15Z" transform="translate(-489.24 -435.24)" style="fill:#0f0f0f" />
    <path d="M654.74,540c-.16-.19-.52-.45-.48-.59a1.17,1.17,0,0,1,.62-.71c1.77-.62,3.55-1.18,5.33-1.76l30.66-10c.15,0,.32-.16.45-.13a9.15,9.15,0,0,1,1,.32c-.21.28-.36.72-.63.81-2.18.76-4.38,1.45-6.58,2.17l-29.41,9.55Z" transform="translate(-489.24 -435.24)" style="fill:#0e0e0e" />
    <path d="M585.08,589.08c-.2.31-.35.54-.51.77q-11.07,15.25-22.17,30.49c-.24.33-.8.43-1.22.63.08-.45,0-1,.26-1.33q11-15.28,22.14-30.5a2.37,2.37,0,0,1,1-.64C584.67,588.46,584.91,588.86,585.08,589.08Z" transform="translate(-489.24 -435.24)" style="fill:#0f0f0f" />
    <path d="M526,528.06l5.52,1.78q15.22,4.94,30.43,9.91c.54.18,1.7.09,1.41,1s-1.21.28-1.79.09q-17.51-5.64-35-11.33c-.27-.09-.6-.11-.77-.29a1.28,1.28,0,0,1-.38-.85C525.47,528.27,525.92,528.14,526,528.06Z" transform="translate(-489.24 -435.24)" style="fill:#0e0e0e" />
    <path d="M609.72,493.8q0,9.24,0,18.48a1.55,1.55,0,0,1,0,.59,7.14,7.14,0,0,1-.55.88c-.21-.31-.43-.61-.62-.94-.05-.09,0-.24,0-.36q0-18.66,0-37.32a1.47,1.47,0,0,1,0-.59,5.22,5.22,0,0,1,.55-.77,5,5,0,0,1,.61.83,1.81,1.81,0,0,1,0,.71Q609.72,484.56,609.72,493.8Z" transform="translate(-489.24 -435.24)" style="fill:#030101" />
    <path d="M591,510.49l-.61.79c-.21-.37-.57-.72-.62-1.11A21.8,21.8,0,0,0,587,501a41.27,41.27,0,0,0-3.61-4.24,4.5,4.5,0,0,1-.5-1.12c.43.05,1,0,1.26.18a14.12,14.12,0,0,1,4.52,5.62A26.6,26.6,0,0,1,591,510.49Z" transform="translate(-489.24 -435.24)" style="fill:#101010" />
    <path d="M664.66,559a18.64,18.64,0,0,1,8.1,2.47,2.92,2.92,0,0,1,.87.62,3.8,3.8,0,0,1,.35,1.08,3.51,3.51,0,0,1-1.05-.12,36.17,36.17,0,0,0-4.29-2c-3.49-1-7-.69-10.53,0-.53.11-1.1.36-1.22-.38,0-.22.57-.71.93-.77C660.09,559.56,662.38,559.28,664.66,559Z" transform="translate(-489.24 -435.24)" style="fill:#101010" />
    <path d="M665.16,555.65c-2,.35-4,.73-6,1a4.14,4.14,0,0,1-1.28-.22c.33-.32.6-.82,1-.93a20.89,20.89,0,0,1,9.59-.64,46.4,46.4,0,0,1,5.75,1.55c.34.1.55.61.82.93-.41.07-.88.3-1.21.17A28.83,28.83,0,0,0,665.16,555.65Z" transform="translate(-489.24 -435.24)" style="fill:#101010" />
    <path d="M593.65,614.21a23.71,23.71,0,0,1,3.67-12c.18-.3.73-.36,1.11-.54,0,.39.09.85-.08,1.14a21.7,21.7,0,0,0-3.31,9.5,38.61,38.61,0,0,0,.41,5,6.76,6.76,0,0,1-.2,1.42c-.32-.37-.82-.7-.93-1.13C594,616.24,593.78,614.9,593.65,614.21Z" transform="translate(-489.24 -435.24)" style="fill:#0f0f0f" />
    <path d="M553.85,555.72c1.15.18,3.16.45,5.15.82.31.06.55.5.83.77-.38.12-.78.41-1.12.34-3.59-.71-7.19-1.11-10.75,0a41.87,41.87,0,0,0-4.08,1.89,3.58,3.58,0,0,1-1.22.07c.17-.35.24-.82.52-1C546.07,556.38,549.45,555.81,553.85,555.72Z" transform="translate(-489.24 -435.24)" style="fill:#101010" />
    <path d="M630.65,510.53c.58-5.38,1.86-10.2,5.79-13.9a6.88,6.88,0,0,1,1.42-1.08c.22-.12.61.08.92.14-.07.28-.06.68-.24.81-4.56,3.31-5.93,8.19-6.59,13.41a1.42,1.42,0,0,1-.11.58,6.52,6.52,0,0,1-.67.75Z" transform="translate(-489.24 -435.24)" style="fill:#0f0f0f" />
    <path d="M618.24,615.26c-.11.93-.29,2.76-.57,4.57-.05.35-.48.65-.74,1a3.38,3.38,0,0,1-.43-1.16c.11-2.78.42-5.56.4-8.34a8.24,8.24,0,0,0-2.37-6.31c-.16-.15-.1-.55-.14-.83.32,0,.79-.17.94,0a9.52,9.52,0,0,1,1.58,2C618.25,608.75,618.27,611.56,618.24,615.26Z" transform="translate(-489.24 -435.24)" style="fill:#0f0f0f" />
    <path d="M649.11,523.65c-.09-.26-.31-.54-.25-.77a1.26,1.26,0,0,1,.54-.76c1.11-.61,2.3-1.09,3.39-1.74,3.52-2.11,6.52-4.71,7.8-8.82.07-.24.49-.37.75-.55.13.32.46.76.35,1a32.84,32.84,0,0,1-3.1,5.31,21.08,21.08,0,0,1-8.59,5.87l-.55.2Z" transform="translate(-489.24 -435.24)" style="fill:#0e0e0e" />
    <path d="M552.46,583.86c-.29,0-.53.13-.68.06a11.77,11.77,0,0,1-1.14-.69,3.47,3.47,0,0,1,1.13-.48,14.36,14.36,0,0,0,8.56-3.25c1.59-1.25,3-2.75,4.49-4.1a3,3,0,0,1,1-.36c0,.38.12.89-.07,1.11-3.12,3.63-6.75,6.52-11.58,7.54a9.36,9.36,0,0,1-.94.13C552.92,583.84,552.64,583.85,552.46,583.86Z" transform="translate(-489.24 -435.24)" style="fill:#0e0e0e" />
    <path d="M660.26,564.37a27.65,27.65,0,0,1,11.34,3.11,8.31,8.31,0,0,1,1.37.72c.23.17.31.53.46.8-.33.08-.72.32-1,.22-1.07-.42-2.06-1.07-3.15-1.41a60.77,60.77,0,0,0-7.56-2.05c-1.23-.22-2.6.39-3.92.59a6.08,6.08,0,0,1-1.06,0c.15-.36.22-.94.47-1C658.41,564.86,659.64,564.55,660.26,564.37Z" transform="translate(-489.24 -435.24)" style="fill:#101010" />
    <path d="M624.12,615.32c-.16.77-.42,2.21-.78,3.63-.07.26-.54.42-.82.63-.11-.32-.39-.69-.31-.94,1.46-4.31.34-8.32-1.4-12.26-.4-.91-1-1.74-1.37-2.64a3.3,3.3,0,0,1-.06-1.16c.35.15.86.21,1,.48A23.38,23.38,0,0,1,624.12,615.32Z" transform="translate(-489.24 -435.24)" style="fill:#0f0f0f" />
    <path d="M669.77,549.24c1.27.11,3,.21,4.67.42.3,0,.54.49.81.75-.32.14-.67.45-1,.41a36.05,36.05,0,0,0-14.65,1.26c-.19.05-.4.17-.57.14a6.66,6.66,0,0,1-1-.35c.22-.27.39-.73.66-.79,2-.49,3.94-1,5.93-1.31C666.21,549.49,667.78,549.43,669.77,549.24Z" transform="translate(-489.24 -435.24)" style="fill:#101010" />
    <path d="M602.87,507.82a16.86,16.86,0,0,1,0,1.79c0,.21-.33.58-.45.56a1,1,0,0,1-.65-.49,3.77,3.77,0,0,1-.15-1.06c-.57-4.94-1.14-9.89-1.68-14.83,0-.35.23-.73.36-1.1.28.3.75.57.8.91.67,4.73,1.28,9.47,1.91,14.2Z" transform="translate(-489.24 -435.24)" style="fill:#101010" />
    <path d="M661.44,591.15a22.84,22.84,0,0,1-9.8-4.69,39.57,39.57,0,0,1-3.82-3.94c-.21-.24-.06-.8-.08-1.21.35.16.82.23,1,.5a22.54,22.54,0,0,0,12.43,8c.35.09.6.55.9.84Z" transform="translate(-489.24 -435.24)" style="fill:#101010" />
    <path d="M627.13,614.37A22.63,22.63,0,0,0,623.33,602c-.21-.31-.12-.82-.17-1.23.38.17.92.23,1.12.52a22.81,22.81,0,0,1,3.94,15.32c0,.27-.44.52-.67.77-.17-.27-.48-.54-.49-.82C627,615.78,627.11,615,627.13,614.37Z" transform="translate(-489.24 -435.24)" style="fill:#0f0f0f" />
    <path d="M639.22,610.6c-.11.17-.19.47-.35.51a1.14,1.14,0,0,1-.76-.11c-.14-.07-.19-.34-.29-.51l-7.33-13c-.12-.21-.32-.39-.36-.61a5.81,5.81,0,0,1,0-1,3.17,3.17,0,0,1,1,.47,6.07,6.07,0,0,1,.85,1.29q3.31,5.81,6.6,11.64C638.83,609.64,639,610.1,639.22,610.6Z" transform="translate(-489.24 -435.24)" style="fill:#101010" />
    <path d="M588.49,596c-.23.39-.41.69-.59,1-2.49,4.4-5,8.81-7.49,13.2-.18.31-.62.46-.93.69,0-.42-.28-.94-.12-1.25q2.57-4.86,5.26-9.66c.78-1.39,1.65-2.73,2.52-4.06a1.39,1.39,0,0,1,.84-.49C588.1,595.37,588.3,595.74,588.49,596Z" transform="translate(-489.24 -435.24)" style="fill:#101010" />
    <path d="M558.22,509c.16.19.39.36.47.58,1.74,5.37,6,8.14,10.75,10.4.14.07.35.09.43.2a9.1,9.1,0,0,1,.53.89c-.38.05-.82.25-1.13.13a23.6,23.6,0,0,1-7.64-4.82,13.81,13.81,0,0,1-4-6.15,3.29,3.29,0,0,1,.14-1.21Z" transform="translate(-489.24 -435.24)" style="fill:#0e0e0e" />
    <path d="M548.53,579.34l-.72-.67c.25-.24.46-.62.76-.7,2.5-.66,5-1.15,7.51-1.94a15.54,15.54,0,0,0,4-2.1,13.5,13.5,0,0,0,1.93-2.22,4.36,4.36,0,0,1,.87-.59c.08.38.33.83.21,1.13a5.55,5.55,0,0,1-1,1.58,13.65,13.65,0,0,1-6.34,3.67C553.37,578.22,551,578.72,548.53,579.34Z" transform="translate(-489.24 -435.24)" style="fill:#0f0f0f" />
    <path d="M586.84,509.83a15.24,15.24,0,0,1-.46,1.9.74.74,0,0,1-.66.3c-.19,0-.48-.41-.45-.58.72-3.83-1.55-6.52-3.58-9.27-1-1.37-2.29-2.55-3.4-3.87a3.41,3.41,0,0,1-.37-1.21c.4.11.92.09,1.18.34a28.47,28.47,0,0,1,6.47,8.53A32.67,32.67,0,0,1,586.84,509.83Z" transform="translate(-489.24 -435.24)" style="fill:#0e0e0e" />
    <path d="M573.4,518.47a28.16,28.16,0,0,1-3.91-2.23c-3.19-2.54-5.17-6-7-9.59-.14-.27,0-.71.08-1.06.34.18.81.27,1,.55,1.43,2.2,2.69,4.52,4.23,6.63s3.34,3.88,6.12,4.23c.2,0,.53.56.48.62A6.22,6.22,0,0,1,573.4,518.47Z" transform="translate(-489.24 -435.24)" style="fill:#0e0e0e" />
    <path d="M664.07,587.44c-4.81-.23-8.33-2.3-11.5-5.11a22.3,22.3,0,0,1-2.33-2.4,3.64,3.64,0,0,1-.39-1.32c.42.17,1,.22,1.25.52,2.57,2.8,5.42,5.21,9.09,6.41a29.37,29.37,0,0,0,3.5.67c.51.1,1.39-.37,1.36.6C665,587.09,664.22,587.35,664.07,587.44Z" transform="translate(-489.24 -435.24)" style="fill:#0e0e0e" />
    <path d="M667.15,583.75c-4.93-1-9.78-1.7-13.5-5.29a7.28,7.28,0,0,1-1.26-2c-.09-.18.16-.54.26-.81.28.14.72.21.82.43a8.2,8.2,0,0,0,5.1,4.08c2.54.88,5.19,1.47,7.8,2.18.27.07.6,0,.81.17a1.28,1.28,0,0,1,.55.74C667.75,583.39,667.32,583.61,667.15,583.75Z" transform="translate(-489.24 -435.24)" style="fill:#0f0f0f" />
    <path d="M544.19,543c4.05.84,8,1.63,11.85,2.45a31.11,31.11,0,0,1,3.35.86c.42.14.75.59,1.12.89a4.23,4.23,0,0,1-1.45.23c-3.62-.76-7.23-1.6-10.85-2.37-1.32-.28-2.68-.41-4-.67a3.41,3.41,0,0,1-1-.61Z" transform="translate(-489.24 -435.24)" style="fill:#0e0e0e" />
    <path d="M669.21,526a5.33,5.33,0,0,1-.95.75c-3.33,1.6-6.67,3.18-10,4.73-1.33.62-2.7,1.17-4.09,1.66-.33.12-.8-.14-1.2-.23.25-.3.44-.74.76-.89q7.14-3.3,14.32-6.52c.3-.13.72,0,1.09,0Z" transform="translate(-489.24 -435.24)" style="fill:#0e0e0e" />
    <path d="M674.32,543.26l.67.61c-.28.22-.53.57-.84.63-4.29.88-8.6,1.72-12.9,2.58-.82.16-1.62.44-2.44.56a3.26,3.26,0,0,1-1.11-.25c.27-.3.5-.81.82-.88,4.23-1,8.48-1.88,12.73-2.78C672.19,543.52,673.14,543.43,674.32,543.26Z" transform="translate(-489.24 -435.24)" style="fill:#0e0e0e" />
    <path d="M560.64,561.33c-.56.23-.95.53-1.14.44-3.74-1.87-7.22-.38-10.69.85-1.38.49-2.68,1.22-4,1.76a3.12,3.12,0,0,1-1.23-.07c.22-.32.36-.78.66-.94,3.62-1.88,7.33-3.55,11.49-3.61a16.88,16.88,0,0,1,3.92.72C559.91,560.54,560.13,560.89,560.64,561.33Z" transform="translate(-489.24 -435.24)" style="fill:#0e0e0e" />
    <path d="M572.92,582.62a8.13,8.13,0,0,1-.49.89,38,38,0,0,1-11.26,10c-.46.26-1.52.37-1.6.22-.46-1,.57-1,1.06-1.28a38.14,38.14,0,0,0,10.49-9.31c.2-.25.36-.63.62-.7A3.27,3.27,0,0,1,572.92,582.62Z" transform="translate(-489.24 -435.24)" style="fill:#101010" />
    <path d="M616.73,508.61l1.86-14.7a1,1,0,0,1,.09-.46c.22-.29.48-.54.73-.8.15.35.46.71.43,1-.11,1.11-.4,2.2-.51,3.3-.42,4.08-.79,8.17-1.23,12.25,0,.34-.41.65-.63,1a9.42,9.42,0,0,1-.55-1,1.62,1.62,0,0,1,0-.59Z" transform="translate(-489.24 -435.24)" style="fill:#0e0e0e" />
    <path d="M595.34,509.69a4,4,0,0,1-.28,1,.73.73,0,0,1-.61.15,1.85,1.85,0,0,1-.37-.9,22.63,22.63,0,0,0-4-12.08c-.43-.62-1-1.16-1.37-1.81a3.35,3.35,0,0,1-.18-1.23c.37.14.87.17,1.09.43a23.12,23.12,0,0,1,5.27,10.85C595.07,507.26,595.18,508.46,595.34,509.69Z" transform="translate(-489.24 -435.24)" style="fill:#101010" />
    <path d="M633.91,613.89l-.54.6c-.26-.29-.69-.55-.75-.88a35,35,0,0,0-4.44-11.41c-.52-.9-1.14-1.73-1.64-2.64-.13-.23,0-.61.06-.93.31.07.76,0,.89.22A37.64,37.64,0,0,1,633.91,613.89Z" transform="translate(-489.24 -435.24)" style="fill:#0f0f0f" />
    <path d="M651,526.83c-.14-.12-.51-.3-.49-.43a1.2,1.2,0,0,1,.44-.83c.78-.38,1.65-.6,2.43-1a22.23,22.23,0,0,0,9-7.9,2.84,2.84,0,0,1,.46-.69,5.23,5.23,0,0,1,.94-.5c0,.38.25.88.08,1.11a42.12,42.12,0,0,1-3.45,4.43,21.51,21.51,0,0,1-8.35,5.45C651.76,526.6,651.46,526.69,651,526.83Z" transform="translate(-489.24 -435.24)" style="fill:#0e0e0e" />
    <path d="M548.09,524.17l.7.31,13.91,6.32c.14.07.33.09.43.2a8.2,8.2,0,0,1,.53.8c-.33.11-.73.39-1,.3-1.31-.47-2.6-1-3.87-1.57-3.44-1.58-6.86-3.19-10.28-4.79a2.62,2.62,0,0,1-.8-.52.75.75,0,0,1-.14-.64C547.65,524.41,547.91,524.31,548.09,524.17Z" transform="translate(-489.24 -435.24)" style="fill:#0e0e0e" />
    <path d="M564.49,598.83c-.26-.18-.59-.33-.58-.43a1.68,1.68,0,0,1,.34-.93c1.16-1.21,2.42-2.33,3.54-3.57,2.3-2.54,4.54-5.15,6.82-7.72.34-.39.65-1.12,1.28-.54.16.14-.05,1-.32,1.25q-4.9,5.5-9.89,10.92A12.67,12.67,0,0,1,564.49,598.83Z" transform="translate(-489.24 -435.24)" style="fill:#0e0e0e" />
    <path d="M554.83,588.81c-.13-.12-.55-.38-.51-.48a1.41,1.41,0,0,1,.63-.8c1.52-.59,3.11-1,4.59-1.66a21.3,21.3,0,0,0,8.13-6.5c.2-.25.68-.28,1-.42,0,.38.11.88-.08,1.13a23.1,23.1,0,0,1-13.49,8.64Z" transform="translate(-489.24 -435.24)" style="fill:#0f0f0f" />
    <path d="M559.89,553.87a3.47,3.47,0,0,1-1.1.17c-1.1-.19-2.17-.54-3.27-.71a22.38,22.38,0,0,0-11.74,1.5c-.31.12-.76-.1-1.14-.15.21-.31.36-.79.65-.91a22.74,22.74,0,0,1,15.57-1,5.75,5.75,0,0,1,1.05.56Z" transform="translate(-489.24 -435.24)" style="fill:#0e0e0e" />
    <path d="M647,521.17l-.88-.94c.21-.19.4-.51.63-.54a8.53,8.53,0,0,0,5.63-3.76c1.65-2.19,3-4.6,4.51-6.89.23-.35.72-.53,1.09-.79,0,.46.14,1,0,1.37-1.87,3.64-3.91,7.18-7.29,9.65A26.2,26.2,0,0,1,647,521.17Z" transform="translate(-489.24 -435.24)" style="fill:#0e0e0e" />
    <path d="M564.34,528.08c-1.5-.64-2.86-1.19-4.19-1.8a33.34,33.34,0,0,1-9.49-6.31c-.27-.26-.27-.79-.4-1.19.4.09.92.06,1.18.3a38.67,38.67,0,0,0,12.85,7.63c.32.12.53.55.8.83Z" transform="translate(-489.24 -435.24)" style="fill:#0e0e0e" />
    <path d="M653.83,600.21a5.93,5.93,0,0,1-.79-.6q-5.29-5.77-10.55-11.57c-.2-.22-.09-.73-.12-1.11.37.13.86.14,1.08.4,2.56,2.84,5.06,5.74,7.61,8.59.93,1,2,2,3,3a1.57,1.57,0,0,1,.33.9C654.37,599.89,654,600,653.83,600.21Z" transform="translate(-489.24 -435.24)" style="fill:#0e0e0e" />
    <path d="M602.19,603.4c.22.18.51.31.54.48a.91.91,0,0,1-.2.73c-1.82,1.63-2.28,3.85-2.35,6.07-.08,2.66.21,5.33.35,8a2.85,2.85,0,0,1,.07.83,4.13,4.13,0,0,1-.49.89c-.23-.23-.62-.42-.66-.68-.62-4-1.1-7.93,0-11.86a18.64,18.64,0,0,1,2-3.86C601.55,603.74,601.9,603.61,602.19,603.4Z" transform="translate(-489.24 -435.24)" style="fill:#0f0f0f" />
    <path d="M567.76,524.32c-.42,0-.92.21-1.24,0a55.85,55.85,0,0,1-6-3.19,20.18,20.18,0,0,1-6-6.55c-.21-.34-.08-.88-.11-1.33.37.21.87.33,1.08.65a22.72,22.72,0,0,0,11.5,9.34,4.86,4.86,0,0,1,.89.57Z" transform="translate(-489.24 -435.24)" style="fill:#0e0e0e" />
    <path d="M626.27,509a23.2,23.2,0,0,1,5.59-13.7c.24-.28.77-.32,1.17-.47-.08.41,0,.93-.25,1.21a22.77,22.77,0,0,0-5.36,13.79c0,.35-.41.69-.63,1a6.32,6.32,0,0,1-.54-1A2.53,2.53,0,0,1,626.27,509Z" transform="translate(-489.24 -435.24)" style="fill:#0e0e0e" />
    <path d="M621.5,509a39.12,39.12,0,0,1,3.1-13.78,2.93,2.93,0,0,1,.49-.94c.2-.19.58-.2.89-.29.07.28.25.59.18.83a10.72,10.72,0,0,1-.6,1.29,39.18,39.18,0,0,0-2.87,13.24c0,.52.32,1.38-.65,1.31-.22,0-.37-.93-.54-1.43A.67.67,0,0,1,621.5,509Z" transform="translate(-489.24 -435.24)" style="fill:#0f0f0f" />
    <path d="M589.54,613.47a24.09,24.09,0,0,1,3.62-12.86,4.44,4.44,0,0,1,.78-1c.18-.15.56-.08.85-.11a7.8,7.8,0,0,1,.07.84c0,.1-.13.2-.19.29a22.39,22.39,0,0,0-3.84,14.29c0,.16.11.35,0,.47s-.33.59-.53.62a.8.8,0,0,1-.63-.49A19.27,19.27,0,0,1,589.54,613.47Z" transform="translate(-489.24 -435.24)" style="fill:#0e0e0e" />
    <path d="M635.81,510.22a14.58,14.58,0,0,1,3.45-8.08,61,61,0,0,1,4.12-4.67c.25-.26.78-.27,1.18-.39a3.9,3.9,0,0,1-.39,1.28c-1.88,2.46-3.93,4.81-5.69,7.36a6.85,6.85,0,0,0-1.27,5.56c.05.21-.23.5-.36.76-.27-.16-.69-.26-.78-.49A5.79,5.79,0,0,1,635.81,510.22Z" transform="translate(-489.24 -435.24)" style="fill:#0e0e0e" />
    <path d="M599.43,508.68a5.33,5.33,0,0,1,0,1.31c-.05.27-.38.49-.59.73-.19-.21-.51-.4-.54-.63-.16-1.27-.22-2.54-.35-3.81a35.21,35.21,0,0,0-2.93-11.05c-.16-.36,0-.88.06-1.33.33.26.81.45,1,.8A36.38,36.38,0,0,1,599.43,508.68Z" transform="translate(-489.24 -435.24)" style="fill:#0f0f0f" />
    <path d="M644.78,583.74c.28.3.52.54.74.81a37.69,37.69,0,0,0,11.27,9.83c.27.14.34.64.5,1-.39,0-.85.16-1.15,0a33.06,33.06,0,0,1-9.21-7.31c-.92-1-1.77-2-2.62-3.1a1,1,0,0,1-.12-.75C644.23,584,644.52,583.93,644.78,583.74Z" transform="translate(-489.24 -435.24)" style="fill:#0d0b0d" />
    <path d="M547.42,547.53A42.39,42.39,0,0,1,559,549.25c.39.12.67.59,1,.89a3.57,3.57,0,0,1-1.36.22A38,38,0,0,0,543.91,549c-.36,0-.76-.29-1.15-.45.35-.25.68-.67,1.05-.72C545.16,547.67,546.52,547.61,547.42,547.53Z" transform="translate(-489.24 -435.24)" style="fill:#0e0e0e" />
    <path d="M667,521.5a7.74,7.74,0,0,1-.65.79,37.29,37.29,0,0,1-13.28,7.8c-.3.11-.72-.15-1.09-.23.24-.3.42-.75.73-.87a40.77,40.77,0,0,0,10.56-5.69c.88-.68,1.67-1.48,2.54-2.18a1.38,1.38,0,0,1,.85-.17C666.74,520.95,666.83,521.24,667,521.5Z" transform="translate(-489.24 -435.24)" style="fill:#0e0e0e" />
    <path d="M583.94,612.21a32.07,32.07,0,0,1,3.33-9.8c.84-1.62,1.8-3.19,2.79-4.73.21-.32.79-.41,1.2-.6a3.33,3.33,0,0,1-.2,1.23c-2.73,4.29-5,8.77-5.86,13.86,0,.27-.48.47-.74.71Z" transform="translate(-489.24 -435.24)" style="fill:#0f0f0f" />
    <path d="M585.36,594.74c-.2.35-.35.64-.52.9-2.4,3.67-4.8,7.34-7.24,11-.2.3-.72.4-1.08.6,0-.42-.1-.94.1-1.25q3.62-5.64,7.34-11.21a1.9,1.9,0,0,1,.92-.59C584.95,594.14,585.18,594.53,585.36,594.74Z" transform="translate(-489.24 -435.24)" style="fill:#101010" />
    <path d="M569.46,601.56c-.15-.11-.44-.23-.44-.34a1.75,1.75,0,0,1,.23-1c.89-1.18,1.84-2.31,2.76-3.46,1.87-2.33,3.73-4.68,5.64-7,.26-.31.8-.37,1.22-.55a3.56,3.56,0,0,1-.34,1.33c-2.69,3.42-5.42,6.8-8.13,10.2a5.76,5.76,0,0,0-.54,1.09Z" transform="translate(-489.24 -435.24)" style="fill:#0f0f0f" />
    <path d="M669.42,530.66a3.35,3.35,0,0,1-.71.51c-4.28,1.63-8.56,3.26-12.85,4.84-.28.1-.69-.13-1-.2.21-.32.36-.82.65-.93q6.35-2.47,12.73-4.82c.33-.12.79.1,1.19.16Z" transform="translate(-489.24 -435.24)" style="fill:#0f0f0f" />
    <path d="M614.17,501.52c-.11,2.23-.18,4.47-.35,6.7,0,.4-.43.78-.66,1.17-.18-.42-.53-.85-.51-1.26q.26-6.64.65-13.28c0-.34.39-.66.59-1,.2.36.58.73.57,1.09,0,2.2-.18,4.39-.29,6.58Z" transform="translate(-489.24 -435.24)" style="fill:#101010" />
    <path d="M640.09,588.75a5.3,5.3,0,0,1,.72.62c2.83,3.51,5.66,7,8.45,10.57.21.27.08.8.11,1.21-.35-.15-.82-.2-1-.46q-4.24-5.2-8.4-10.46a2.2,2.2,0,0,1-.33-1C639.59,589.08,639.88,588.93,640.09,588.75Z" transform="translate(-489.24 -435.24)" style="fill:#0f0f0f" />
    <path d="M563.14,536.8a3,3,0,0,1-1.15.08c-1.8-.63-3.57-1.34-5.36-2-2.38-.9-4.77-1.78-7.14-2.7a2.73,2.73,0,0,1-.94-.65c-.08-.08.06-.56.18-.6a1.43,1.43,0,0,1,.88,0c3.17,1.17,6.33,2.37,9.49,3.56,1.12.42,2.23.83,3.34,1.29a3.83,3.83,0,0,1,.78.58Z" transform="translate(-489.24 -435.24)" style="fill:#0e0e0e" />
    <path d="M605.83,501.91c.1,2.11.22,4.22.26,6.34,0,.37-.34.76-.52,1.13-.22-.36-.62-.7-.64-1.07q-.4-6.69-.67-13.39c0-.35.32-.71.5-1.07.23.33.64.65.67,1,.18,2.35.28,4.7.41,7.05Z" transform="translate(-489.24 -435.24)" style="fill:#101010" />
    <path d="M642.93,606.48c-.15.19-.32.53-.43.51a1.4,1.4,0,0,1-.85-.41c-1-1.51-2-3.05-3-4.58-1.47-2.23-3-4.45-4.37-6.71-.21-.34-.07-.89-.1-1.34.36.22.86.35,1.07.67,2.46,3.68,4.88,7.38,7.31,11.08C642.67,605.94,642.78,606.19,642.93,606.48Z" transform="translate(-489.24 -435.24)" style="fill:#0f0f0f" />
    <path d="M546.9,538.83l4.55,1.26c3,.81,5.92,1.59,8.86,2.45.36.1.61.56.91.85-.42.1-.88.38-1.24.28q-6.46-1.71-12.89-3.55c-.33-.09-.57-.51-.86-.78Z" transform="translate(-489.24 -435.24)" style="fill:#0e0e0e" />
    <path d="M672.74,539.19a2.83,2.83,0,0,1-.76.54q-6.71,1.87-13.44,3.67c-.23.06-.57-.24-.85-.37.25-.29.45-.75.75-.84,3.09-.89,6.2-1.72,9.3-2.57,1.3-.35,2.6-.74,3.92-1a2.81,2.81,0,0,1,1,.18Z" transform="translate(-489.24 -435.24)" style="fill:#0e0e0e" />
    <path d="M567.94,545.3c.15-11.44,4.65-19.6,13-25.75a18.81,18.81,0,0,1,8.91-3.76,18,18,0,0,1,12.41,3,49.28,49.28,0,0,1,5.61,4.58c1.17,1,1.2,1.13,2.25,0a25.09,25.09,0,0,1,9-6.34,17.08,17.08,0,0,1,16.54,1.6,30.65,30.65,0,0,1,12.76,16,29.89,29.89,0,0,1,1.38,12.16c-.84,10.69-5.59,19.71-11.83,28.11a84.27,84.27,0,0,1-12.78,13.47,89.67,89.67,0,0,1-15.45,10.73,1.93,1.93,0,0,1-1.61,0,97.85,97.85,0,0,1-21.21-16.15,78.55,78.55,0,0,1-12-15.55,51.94,51.94,0,0,1-6.39-16.89C568.17,548.47,568.06,546.39,567.94,545.3Zm47.73,45c0-.38,0-.66,0-.93,0-11.24,0-22.47,0-33.71,0-1.18.25-1.61,1.51-1.58,3.68.09,7.36,0,11,0,.38,0,.76,0,1.14-.07V540.76H615.66c0-.7,0-1.25,0-1.81,0-3.36,0-6.72,0-10.08,0-1-.3-1.22-1.24-1.21-3.4.05-6.8.06-10.19,0-1,0-1.23.32-1.22,1.23,0,3.36,0,6.72,0,10.08,0,.46,0,.92-.06,1.47H589.17v13.18h13.4v36.66Z" transform="translate(-489.24 -435.24)" style="fill:#d62c39" />
    <path d="M615.67,590.28h-13.1V553.62h-13.4V540.44H603c0-.55.06-1,.06-1.47,0-3.36,0-6.72,0-10.08,0-.92.23-1.25,1.22-1.23,3.4.06,6.8.06,10.19,0,.94,0,1.25.23,1.24,1.21-.06,3.36,0,6.72,0,10.08,0,.56,0,1.11,0,1.81h13.68V554c-.39,0-.77.07-1.14.07-3.68,0-7.36,0-11,0-1.26,0-1.52.41-1.51,1.58,0,11.24,0,22.47,0,33.71C615.67,589.62,615.67,589.89,615.67,590.28Z" transform="translate(-489.24 -435.24)" style="fill:#030101" />
</svg>
